<svg xmlns="http://www.w3.org/2000/svg" viewBox="0 0 172 172"><defs><linearGradient x1="110.859" y1="110.859" x2="161.474" y2="161.474" gradientUnits="userSpaceOnUse" id="a"><stop offset="0" stop-color="#a84fcf"/><stop offset="1" stop-color="#7615b5"/></linearGradient></defs><g fill="none" stroke-miterlimit="10" font-family="none" font-weight="none" font-size="none" text-anchor="none" style="mix-blend-mode:normal"><path d="M0 172V0h172v172z"/><path d="m36.65 56.921-10.42-10.42C18.726 57.828 14.333 71.394 14.333 86a71.228 71.228 0 0 0 9.743 36.041c1.05 1.799 3.562 2.053 5.035.577l5.877-5.877c.985-.985 1.168-2.483.508-3.708-4.332-8.06-6.83-17.243-6.83-27.033 0-10.628 2.943-20.543 7.984-29.079z" fill="#50e6ff"/><path d="M143.333 86c0 10.628-2.942 20.543-7.983 29.079l10.42 10.42c7.503-11.327 11.897-24.897 11.897-39.499a71.228 71.228 0 0 0-9.743-36.041c-1.05-1.799-3.562-2.05-5.035-.577l-5.877 5.877c-.985.985-1.168 2.483-.508 3.708 4.332 8.06 6.83 17.243 6.83 27.033z" fill="#199be2"/><path d="M55.259 34.988c.985.985 2.483 1.168 3.708.509 8.06-4.333 17.243-6.83 27.033-6.83 10.628 0 20.543 2.942 29.079 7.983l10.424-10.424c-11.33-7.5-24.897-11.893-39.503-11.893a71.217 71.217 0 0 0-35.88 9.65c-1.867 1.086-2.261 3.605-.734 5.132z" fill="#35c1f1"/><path d="M116.741 137.012c-.985-.985-2.483-1.168-3.708-.509-8.06 4.333-17.243 6.83-27.033 6.83-10.628 0-20.543-2.942-29.079-7.983l-10.42 10.42c11.327 7.503 24.897 11.897 39.499 11.897a71.228 71.228 0 0 0 36.041-9.743c1.799-1.05 2.053-3.562.577-5.035z" fill="#0078d4"/><path d="m128.763 43.269-17.321-.595c-1.226-.043-1.835-1.509-.993-2.405l16.688-17.827c.867-.928 2.422-.347 2.472.921l.72 18.336a1.516 1.516 0 0 1-1.566 1.57z" fill="#35c1f1"/><path d="m43.236 128.731 17.322.595c1.226.043 1.835 1.509.993 2.404l-16.688 17.828c-.867.928-2.422.347-2.472-.921l-.72-18.336a1.516 1.516 0 0 1 1.565-1.57z" fill="#0078d4"/><path d="m128.731 128.763.595-17.321c.043-1.226 1.509-1.835 2.404-.993l17.828 16.688c.928.867.347 2.422-.921 2.472l-18.336.72a1.516 1.516 0 0 1-1.57-1.566z" fill="#199be2"/><path d="m43.269 43.236-.595 17.322c-.043 1.226-1.509 1.835-2.405.993L22.44 44.863c-.928-.867-.348-2.422.92-2.472l18.337-.72a1.517 1.517 0 0 1 1.573 1.565z" fill="#50e6ff"/><g><path d="M136.167 100.333c-19.709 0-35.834 16.125-35.834 35.834 0 19.708 16.125 35.833 35.834 35.833C155.875 172 172 155.875 172 136.167c0-19.709-16.125-35.834-35.833-35.834z" fill="url(#a)"/><path d="M124.8 127.266h10.216a4.955 4.955 0 0 0-.698-1.624c-.326-.487-.785-.899-1.373-1.247-.591-.347-1.322-.612-2.193-.799-.87-.186-1.903-.28-3.1-.28h-2.87a1.792 1.792 0 0 1-1.791-1.802l.007-1.651a1.79 1.79 0 0 1 1.792-1.781h21.836c.99 0 1.792.802 1.792 1.791v1.652c0 .99-.803 1.792-1.792 1.792h-5.36c.512.523.924 1.11 1.254 1.763.33.652.537 1.383.645 2.182h3.54c.99 0 1.792.803 1.792 1.792v1.652c0 .989-.803 1.791-1.792 1.791h-3.694a8.443 8.443 0 0 1-1.086 2.63 9.384 9.384 0 0 1-1.939 2.226c-.784.66-1.68 1.232-2.69 1.709-1.011.477-2.126.835-3.34 1.079v.11a9.63 9.63 0 0 1 1.727 1.036c.516.39 1.018.85 1.505 1.373.484.523.964 1.118 1.437 1.791.473.674.992 1.427 1.559 2.269l6.636 10.119a.895.895 0 0 1-.749 1.387h-6.382a1.79 1.79 0 0 1-1.534-.867l-5.493-9.127a36.282 36.282 0 0 0-1.652-2.548c-.52-.727-1.071-1.333-1.662-1.82a6.402 6.402 0 0 0-1.953-1.108c-.71-.25-1.545-.376-2.49-.376h-.108a1.792 1.792 0 0 1-1.792-1.791v-2.322c0-.99.803-1.792 1.792-1.792h2.823c.9 0 1.753-.097 2.562-.294a8.879 8.879 0 0 0 2.176-.824 6.379 6.379 0 0 0 1.64-1.261 4.44 4.44 0 0 0 .968-1.595H124.8a1.792 1.792 0 0 1-1.791-1.792v-1.652a1.79 1.79 0 0 1 1.791-1.791z" fill="#fff"/></g></g></svg>