<svg xmlns="http://www.w3.org/2000/svg" viewBox="0 0 48 48"><path fill="#184f85" d="M36 40H12v3a2 2 0 0 0 2 2h20a2 2 0 0 0 2-2v-3z"/><path fill="#0078d4" d="M12 33h24v7H12z"/><path fill="#1b9de2" d="M12 23h24v10H12z"/><path fill="#35c1f1" d="M12 9h24v14H12z"/><path fill="#50e6ff" d="M36 9H12V6a2 2 0 0 1 2-2h20a2 2 0 0 1 2 2v3z"/><circle cx="20" cy="6.5" r=".75" fill="#0c63ad"/><path fill="#0c63ad" d="M27.5 5.75h-5a.75.75 0 0 0 0 1.5h5a.75.75 0 0 0 0-1.5z"/><linearGradient id="a" x1="40.993" x2="48" y1="28" y2="28" gradientUnits="userSpaceOnUse"><stop offset="0" stop-color="#7819a2"/><stop offset="1" stop-color="#771aa9"/></linearGradient><path fill="url(#a)" d="M44.875 28c0 3.278-1.515 6.2-3.882 8.11l1.626 1.626c.35.35.917.352 1.27.007C46.423 35.268 48 31.821 48 28s-1.577-7.268-4.11-9.743a.903.903 0 0 0-1.27.007l-1.626 1.626A10.397 10.397 0 0 1 44.875 28z"/><linearGradient id="b" x1="38.612" x2="44.875" y1="28" y2="28" gradientUnits="userSpaceOnUse"><stop offset="0" stop-color="#912fbd"/><stop offset="1" stop-color="#9332bf"/></linearGradient><path fill="url(#b)" d="M41.542 28a7.069 7.069 0 0 1-2.929 5.729l2.381 2.381c2.367-1.909 3.882-4.832 3.882-8.11s-1.515-6.2-3.882-8.11l-2.381 2.381A7.069 7.069 0 0 1 41.542 28z"/><linearGradient id="c" x1="36.202" x2="41.542" y1="28" y2="28" gradientUnits="userSpaceOnUse"><stop offset="0" stop-color="#ae4cd5"/><stop offset="1" stop-color="#ac4ad5"/></linearGradient><path fill="url(#c)" d="M41.542 28a7.069 7.069 0 0 0-2.929-5.729l-2.41 2.41a3.748 3.748 0 0 1 0 6.636l2.41 2.41A7.062 7.062 0 0 0 41.542 28z"/><linearGradient id="d" x1="33.256" x2="38.208" y1="28" y2="28" gradientUnits="userSpaceOnUse"><stop offset="0" stop-color="#c965eb"/><stop offset="1" stop-color="#c767e5"/></linearGradient><path fill="url(#d)" d="m33.52 28.636 2.682 2.682a3.748 3.748 0 0 0 0-6.636l-2.682 2.682a.898.898 0 0 0 0 1.272z"/></svg>