<svg xmlns="http://www.w3.org/2000/svg" viewBox="0 0 172 172"><defs><linearGradient x1="102.229" y1="55.441" x2="120.4" y2="37.267" gradientUnits="userSpaceOnUse" id="a"><stop offset="0" stop-color="#3079d6"/><stop offset="1" stop-color="#297cd2"/></linearGradient><linearGradient x1="110.829" y1="110.829" x2="161.504" y2="161.504" gradientUnits="userSpaceOnUse" id="b"><stop offset="0" stop-color="#f44f5a"/><stop offset=".443" stop-color="#ee3d4a"/><stop offset="1" stop-color="#e52030"/></linearGradient></defs><g fill="none" stroke-miterlimit="10" font-family="none" font-weight="none" font-size="none" text-anchor="none" style="mix-blend-mode:normal"><path d="M0 172V0h172v172z"/><path d="M139.75 57.333v89.584a7.165 7.165 0 0 1-7.167 7.166H39.417a7.165 7.165 0 0 1-7.167-7.166V25.083a7.165 7.165 0 0 1 7.167-7.166h60.916z" fill="#50e6ff"/><path d="M100.333 17.917v32.25a7.165 7.165 0 0 0 7.167 7.166h32.25z" fill="url(#a)"/><path d="m50.6 104.963 14.197 14.197a1.481 1.481 0 0 0 2.093 0l3-3a1.481 1.481 0 0 0 0-2.092L55.691 99.871a1.481 1.481 0 0 0-2.092 0l-3 3a1.481 1.481 0 0 0 0 2.092z" fill="#0078d4"/><path d="M55.692 107.962 69.89 93.765a1.481 1.481 0 0 0 0-2.093l-2.999-2.999a1.481 1.481 0 0 0-2.093 0L50.6 102.87a1.481 1.481 0 0 0 0 2.093l3 3a1.481 1.481 0 0 0 2.092 0zM121.4 104.963l-14.197 14.197a1.481 1.481 0 0 1-2.093 0l-3-3a1.481 1.481 0 0 1 0-2.092l14.198-14.197a1.481 1.481 0 0 1 2.092 0l3 3a1.481 1.481 0 0 1 0 2.092z" fill="#0078d4"/><path d="M116.308 107.962 102.11 93.765a1.481 1.481 0 0 1 0-2.093l2.999-2.999a1.481 1.481 0 0 1 2.093 0L121.4 102.87a1.481 1.481 0 0 1 0 2.093l-3 3a1.481 1.481 0 0 1-2.092 0zM95.331 71.817h-5.39c-.705 0-1.314.495-1.461 1.186L75.572 134.67a1.122 1.122 0 0 0 1.097 1.35h5.39c.705 0 1.314-.494 1.461-1.185l12.908-61.666a1.12 1.12 0 0 0-1.097-1.35z" fill="#0078d4"/><g><path d="M172 136.167C172 155.954 155.954 172 136.167 172s-35.834-16.046-35.834-35.833 16.043-35.834 35.834-35.834c19.79 0 35.833 16.043 35.833 35.834z" fill="url(#b)"/><path d="m148.837 120.963 2.534 2.533a1.793 1.793 0 0 1 0 2.533l-25.338 25.338a1.793 1.793 0 0 1-2.533 0l-2.534-2.533a1.793 1.793 0 0 1 0-2.534l25.338-25.337a1.793 1.793 0 0 1 2.533 0z" fill="#fff"/><path d="m151.37 148.837-2.533 2.534a1.793 1.793 0 0 1-2.533 0l-25.341-25.338a1.793 1.793 0 0 1 0-2.533l2.533-2.534a1.793 1.793 0 0 1 2.533 0l25.338 25.338a1.79 1.79 0 0 1 .004 2.533z" fill="#fff"/></g></g></svg>