<svg xmlns="http://www.w3.org/2000/svg" viewBox="0 0 48 48"><path fill="#e3a600" d="M22 8h12v3H22zM41 17h3v8h-3z"/><path fill="#fad500" d="M38 11H17.786c-.762 0-1.496.29-2.052.811L10.2 17H9a2 2 0 0 0-2 2v14a2 2 0 0 0 2 2h1.2l3.914 4.078a3.003 3.003 0 0 0 2.165.922H31.72a3 3 0 0 0 2.164-.922l6.28-6.542A2.998 2.998 0 0 0 41 30.458V14a3 3 0 0 0-3-3z"/><linearGradient id="a" x1="20" x2="30" y1="-315" y2="-315" gradientTransform="matrix(1 0 0 -1 0 -290)" gradientUnits="userSpaceOnUse"><stop offset="0" stop-color="#4b4b4b"/><stop offset="1" stop-color="#3b3b3b"/></linearGradient><path fill="url(#a)" d="M25 34v-7h-5l5-11v7h5z"/><path fill="#fad500" d="M34 8H22a2 2 0 1 1 0-4h12a2 2 0 1 1 0 4zM44 27V15a2 2 0 1 1 4 0v12a2 2 0 1 1-4 0z"/><path fill="#e3a600" d="M4 22h3v8H4z"/><path fill="#fad500" d="M4 20v12a2 2 0 1 1-4 0V20a2 2 0 1 1 4 0z"/></svg>