<svg width="57" height="57" viewBox="0 0 57 57" fill="none" xmlns="http://www.w3.org/2000/svg">
<path fill-rule="evenodd" clip-rule="evenodd" d="M12.6113 51.1539H28.3134C31.0685 51.1539 33.8238 51.1684 36.5861 51.183C39.3629 51.1976 42.1471 51.2121 44.9461 51.2121C47.8537 51.1539 49.9472 49.4676 50.5289 47.0249C51.1103 44.6407 49.831 42.2562 46.9813 41.2093C45.5275 40.6858 45.4113 39.8717 45.4113 38.6506C45.4113 37.4314 45.4046 36.2059 45.3983 34.9782C45.3853 32.5161 45.3723 30.0456 45.4113 27.6009C45.4113 26.4378 45.4113 25.6236 43.783 25.6236C42.1544 25.6236 41.8054 26.2052 41.8637 27.659C41.8887 29.2791 41.8814 30.8991 41.8744 32.5193C41.8649 34.6793 41.8554 36.8393 41.9219 38.9996C41.9799 40.6858 41.1657 40.8603 39.8281 40.8603C38.4326 40.8603 37.7346 40.6858 37.7929 38.9996C37.8594 36.8393 37.8499 34.6793 37.8404 32.5193C37.8331 30.8991 37.8262 29.2791 37.8509 27.659C37.8509 26.4959 37.8509 25.6236 36.2226 25.6236C34.6525 25.6236 34.2453 26.2052 34.3036 27.659C34.3283 29.2791 34.3213 30.8991 34.314 32.5193C34.3045 34.6793 34.295 36.8393 34.3615 38.9996C34.3615 40.6858 33.6636 40.8603 32.268 40.8603C30.8722 40.8603 30.1162 40.6858 30.1744 38.9996C30.2408 36.8393 30.2313 34.6793 30.2218 32.5193C30.2147 30.8992 30.2076 29.2791 30.2325 27.659C30.2325 26.2052 29.9418 25.6236 28.3134 25.6236C26.685 25.6236 26.685 26.4378 26.685 27.6009C26.7099 29.2209 26.7028 30.841 26.6957 32.461C26.6862 34.621 26.6767 36.7813 26.7432 38.9413C26.8013 40.5696 26.1035 40.8024 24.7077 40.8024C23.3702 40.7441 22.556 40.6279 22.6141 38.9413C22.6806 36.7813 22.6711 34.621 22.6616 32.461C22.6545 30.841 22.6474 29.2209 22.6723 27.6009C22.7304 26.2051 22.4397 25.5654 20.8113 25.5654C19.2411 25.5654 19.1829 26.3215 19.1829 27.5427C19.2079 29.1126 19.2007 30.6931 19.1936 32.2752C19.1841 34.3854 19.1746 36.4985 19.2411 38.5923C19.2992 40.1627 18.9503 40.8024 17.2056 40.8024C15.5773 40.7441 15.0539 40.2789 15.112 38.6506C15.1785 36.5565 15.169 34.4437 15.1595 32.3334C15.1524 30.7513 15.1452 29.1707 15.1702 27.6009C15.2283 26.2633 14.9375 25.5654 13.3092 25.5654C11.739 25.6236 11.6227 26.3215 11.6227 27.5427V38.883C11.6227 39.8717 11.5645 40.5113 10.3432 41.0348C7.20283 42.3144 5.9234 44.4662 6.44679 46.9669C7.02835 49.5838 9.29644 51.1539 12.6113 51.1539ZM43.9005 44.1752H28.4892H13.1361C13.0591 44.1752 12.9812 44.1749 12.9028 44.1742C11.5594 44.1682 10.0538 44.1616 10.0538 45.9197C10.0538 47.6785 11.6122 47.6712 12.9124 47.6652C12.988 47.6648 13.0627 47.6645 13.1361 47.6645H43.9005C43.9774 47.6645 44.0553 47.6648 44.1338 47.6652C45.4771 47.6712 46.9829 47.6781 46.9829 45.9197C46.9829 44.1609 45.4246 44.1682 44.1243 44.1742C44.0487 44.1749 43.9739 44.1752 43.9005 44.1752Z" fill="#5A61FF"/>
<path d="M48.9014 19.3431C43.609 15.3885 38.3751 11.4339 33.0247 7.59558C29.7099 5.15304 27.2673 5.15304 24.0106 7.59558C18.7766 11.4339 13.6007 15.3303 8.36668 19.1686C7.37804 19.8665 5.9823 20.448 6.56386 22.0764C7.14542 23.5884 8.65747 23.2395 9.87873 23.2395C16.1014 23.2395 22.2659 23.2395 28.4886 23.2395C34.8858 23.2395 41.2828 23.2395 47.6801 23.2395C48.727 23.2395 49.948 23.3558 50.4132 22.1345C50.9949 20.6807 49.8318 20.0409 48.9014 19.3431ZM13.7752 19.5175C18.2532 16.2026 22.2659 13.1785 26.2787 10.2126C27.7907 9.04949 29.3028 9.10763 30.8148 10.2126C34.8275 13.2367 38.8403 16.2026 43.3183 19.5175C33.3154 19.5175 23.8361 19.5175 13.7752 19.5175Z" fill="#5A61FF"/>
<path d="M30.8157 15.2719C30.4668 16.6094 29.7108 17.5399 28.1987 17.3655C26.9193 17.191 26.0469 16.3187 26.2214 14.9811C26.3377 13.5272 27.3264 12.713 28.7803 12.8293C30.0597 13.0038 30.6994 13.9343 30.8157 15.2719Z" fill="#5A61FF"/>
</svg>
