<?xml version="1.0" encoding="utf-8"?>
<!-- Generator: Adobe Illustrator 25.2.0, SVG Export Plug-In . SVG Version: 6.00 Build 0)  -->
<svg version="1.1" xmlns="http://www.w3.org/2000/svg" xmlns:xlink="http://www.w3.org/1999/xlink" x="0px" y="0px"
	 viewBox="0 0 48 48" style="enable-background:new 0 0 48 48;" xml:space="preserve">
<style type="text/css">
	.st0{fill:#29317F;}
	.st1{fill:#2C3394;}
	.st2{fill:#414CAF;}
	.st3{fill:#3F4EBC;}
	.st4{fill:#4951B5;}
	.st5{fill:#6C77C4;}
	.st6{display:none;}
	.st7{display:inline;fill:#2C3394;}
	.st8{display:inline;fill:#4951B5;}
</style>
<g id="Layer_1">
	<path class="st0" d="M5.3,12.2C5.1,12.6,5,13,5,13.5v20.2c0,1.1,0.6,2.1,1.6,2.7l15.5,8.2c0.6,0.3,1.2,0.5,1.9,0.5V22L5.3,12.2z"/>
	<path class="st1" d="M24,22v23c0.6,0,1.3-0.2,1.9-0.5l15.5-8.2c1-0.5,1.6-1.5,1.6-2.7V13.5c0-0.5-0.1-0.9-0.3-1.3L24,22z"/>
	<path class="st2" d="M24,22l18.7-9.8c-0.3-0.6-0.8-1.1-1.4-1.4L25.7,3.4c-1.1-0.5-2.3-0.5-3.4,0L6.7,10.8c-0.6,0.3-1.1,0.8-1.4,1.4
		L24,22z"/>
	<path class="st3" d="M13.2,16.3c-0.1,0.2-0.2,0.5-0.2,0.8v11.7c0,0.6,0.4,1.2,0.9,1.5l9,4.7c0.3,0.2,0.7,0.3,1.1,0.3V22
		C24,22,13.2,16.3,13.2,16.3z"/>
	<path class="st4" d="M24,22v13.3c0.4,0,0.7-0.1,1.1-0.3l9-4.7c0.6-0.3,0.9-0.9,0.9-1.5V17.1c0-0.3-0.1-0.5-0.2-0.8L24,22z"/>
	<path class="st5" d="M24,22l10.8-5.7c-0.2-0.4-0.5-0.6-0.8-0.8l-9-4.3c-0.6-0.3-1.4-0.3-2,0l-9,4.3c-0.4,0.2-0.6,0.5-0.8,0.8L24,22
		z"/>
</g>
<g id="Layer_2" class="st6">
	<rect x="-11.4" y="-20.7" class="st7" width="29.3" height="15.7"/>
	<rect x="23.8" y="-20.7" class="st8" width="30.6" height="15.7"/>
</g>
</svg>
