<svg width="51" height="51" viewBox="0 0 51 51" fill="none" xmlns="http://www.w3.org/2000/svg">
<path fill-rule="evenodd" clip-rule="evenodd" d="M23.9062 16.9973L23.5144 17.0083C19.8825 17.2114 17 20.2209 17 23.9035V39.841L17.0109 40.233C17.2141 43.8649 20.2236 46.7472 23.9062 46.7472H27.2178C26.3122 45.8031 25.5395 44.7306 24.9296 43.5597H23.9062L23.6013 43.5474C21.6901 43.3923 20.1875 41.7922 20.1875 39.841V23.9035L20.1998 23.5985C20.355 21.6875 21.9551 20.1848 23.9062 20.1848H39.8437C41.8976 20.1848 43.5625 21.8497 43.5625 23.9035V24.9309C44.7334 25.5412 45.8059 26.3143 46.75 27.2204V23.9035L46.7392 23.5116C46.5358 19.8798 43.5264 16.9973 39.8437 16.9973H23.9062ZM33.2233 9.37048L33.1113 8.99478C31.9751 5.53923 28.3222 3.53389 24.765 4.48704L9.37048 8.61196L8.99478 8.72395C5.53923 9.86021 3.53389 13.5131 4.48704 17.0704L8.61196 32.4649L8.72395 32.8406C9.62544 35.5821 12.111 37.4108 14.8762 37.5734L14.876 34.3748C13.397 34.2116 12.0991 33.1636 11.6909 31.6398L7.56593 16.2454L7.49606 15.9319C7.16052 14.0511 8.31605 12.1944 10.1955 11.6909L25.5899 7.56593C27.5738 7.03436 29.6129 8.21165 30.1444 10.1955L31.3947 14.8707H34.6949L33.2233 9.37048Z" fill="#5A61FF"/>
<path fill-rule="evenodd" clip-rule="evenodd" d="M37.1875 48.875C43.6424 48.875 48.875 43.6424 48.875 37.1875C48.875 30.7326 43.6424 25.5 37.1875 25.5C30.7326 25.5 25.5 30.7326 25.5 37.1875C25.5 43.6424 30.7326 48.875 37.1875 48.875ZM39.406 43.35H43.095L39.406 36.635L42.568 30.974H39.831L37.91 34.663L35.887 30.974H32.249L35.666 36.89L32.028 43.35H34.935L37.128 39.134L39.406 43.35Z" fill="#5A61FF"/>
</svg>
