<svg width="2369" height="2274" viewBox="0 0 2369 2274" fill="none" xmlns="http://www.w3.org/2000/svg">
<path d="M2358.98 845.152C2188.73 570.888 2018.02 296.998 1846.84 23.4824C1843.21 16.0755 1837.45 9.92434 1830.3 5.82263C1823.15 1.72093 1814.93 -0.143058 1806.71 0.471209C1392.5 1.03246 978.301 1.03246 564.099 0.471209C555.936 -0.258626 547.737 1.41053 540.508 5.2739C533.28 9.13726 527.337 15.0268 523.408 22.2196C352.414 297.7 181.093 572.665 9.44356 847.117C2.92363 857.144 -0.22262 868.991 0.463571 880.932C12.8111 968.908 26.8423 1056.6 40.3123 1144.3C84.3705 1429.83 128.288 1718.46 172.346 2003.85C186.378 2092.53 199.707 2165.21 213.458 2273.53H595.529C586.689 2165.35 578.13 2063.06 569.29 1936.78H760.396C769.657 2063.06 778.777 2161.28 788.459 2259.5H1582.49C1591.89 2161.28 1601.01 2063.06 1610.55 1936.78H1801.37C1792.53 2063.06 1783.84 2165.35 1775 2273.53H2156.65C2161.28 2246.45 2166.05 2217.41 2169.98 2191.73C2236.2 1759.57 2302.43 1325.72 2367.82 893.42C2370.05 876.801 2366.95 859.902 2358.98 845.152V845.152ZM1940 887.246C1907.03 1156.23 1873.21 1416.36 1839.54 1685.2C1838.14 1696.29 1835.47 1712.28 1832.94 1712.28H536.036C529.442 1698.25 522.005 1621.64 516.112 1571.97C487.208 1342.14 458.303 1116.66 430.521 886.825C428.785 871.067 431.609 855.142 438.659 840.943C501.94 711.855 566.625 584.171 631.449 455.925C636.64 445.683 649.128 432.493 658.389 432.353C768.394 430.669 878.399 430.248 992.613 430.248C985.177 485.531 978.582 547.83 971.145 589.924H1398.82C1391.66 547.83 1384.79 491.705 1377.21 435.58H1430.53C1520.61 435.58 1610.55 432.914 1700.63 434.598C1707.67 435.062 1714.52 437.107 1720.67 440.58C1726.81 444.054 1732.1 448.867 1736.13 454.663C1803.34 585.715 1869.01 717.047 1934.25 849.081C1939.75 861.001 1941.79 874.224 1940.14 887.246H1940Z" fill="#5961FF"/>
<path d="M1595.96 1243.64C1586 1297.8 1577.58 1352.1 1565.23 1405.42C1562.28 1418.05 1546.57 1427.73 1537.17 1438.81C1527.35 1427.87 1512.47 1418.33 1509.1 1405.56C1475.75 1300.02 1474.92 1186.89 1506.72 1080.88C1510.93 1066.84 1526.22 1055.9 1536.47 1043.41C1546.71 1055.76 1563.13 1066.7 1566.35 1080.6C1578.42 1133.49 1586.14 1187.79 1595.96 1243.64Z" fill="#5961FF"/>
<path d="M911.794 1251.35C904.919 1303.69 901.973 1349.57 891.449 1394.61C886.117 1417.2 866.614 1436.71 853.565 1457.19C841.217 1436.99 820.731 1417.9 817.785 1396.44C809.273 1333.13 804.821 1269.34 804.455 1205.47C805.625 1170.67 811.816 1136.22 822.836 1103.18C827.466 1087.33 843.883 1075.12 855.108 1061.09C865.772 1075.12 883.171 1089.15 886.257 1104.87C897.763 1154.54 904.358 1205.89 911.794 1251.35Z" fill="#5961FF"/>
</svg>
