<svg width="49" height="49" viewBox="0 0 49 49" fill="none" xmlns="http://www.w3.org/2000/svg">
<path d="M37.0984 15.3061C34.7467 13.8428 33.5446 12.1704 33.9627 9.60957C34.2763 7.46682 33.2835 6.63061 31.1406 6.68288C26.8029 6.78741 22.4651 6.78741 18.0751 6.68288C15.9846 6.63061 14.8349 7.31002 15.1484 9.50503C15.5143 12.0659 14.469 13.8428 12.065 15.2539C12.065 12.5363 11.8037 9.9754 12.1172 7.46682C12.4308 5.06275 14.1554 3.65168 16.664 3.59941C21.8902 3.54715 27.1165 3.49488 32.3427 3.59941C35.2171 3.65168 36.9939 5.53312 37.0984 8.40754C37.1507 10.6026 37.0984 12.7976 37.0984 15.3061Z" fill="#5A61FF"/>
<path d="M37.0999 33.4932C37.0999 36.1585 37.1521 38.406 37.0999 40.6532C36.9953 43.423 35.2185 45.3043 32.501 45.3566C27.2224 45.4611 21.8916 45.4611 16.6132 45.3566C14.1569 45.3043 12.3277 43.5275 12.1186 41.1236C11.9618 39.3988 12.0663 37.622 12.0663 35.8972C12.0663 35.218 12.0663 34.5908 12.0663 33.65C14.2091 35.1134 15.6202 36.5766 15.2021 39.1374C14.8363 41.4372 15.777 42.4299 18.2333 42.3777C22.571 42.2209 26.9088 42.2731 31.2988 42.3777C33.3369 42.4299 34.0687 41.594 34.0687 39.6078C33.9641 36.1585 34.0164 36.1585 37.0999 33.4932Z" fill="#5A61FF"/>
<path d="M18.2323 32.7095C18.2845 33.389 17.971 33.9114 17.3961 34.225C16.8212 34.5386 16.1941 34.4341 15.7237 34.0159C12.9015 31.1938 10.0271 28.3717 7.25722 25.4973C6.36877 24.6088 6.94365 23.7204 7.67533 22.9887C10.1839 20.4801 12.6925 17.9193 15.2533 15.4107C15.985 14.679 16.8212 14.1041 17.7619 14.9926C18.8071 15.9333 18.2845 16.874 17.5006 17.658C16.0373 19.1213 14.6784 20.7414 13.0583 22.048C11.0201 23.7204 10.7065 25.0269 12.9538 26.8038C14.5217 28.0058 15.8282 29.5738 17.2393 31.037C17.6051 31.5074 18.18 31.9778 18.2323 32.7095Z" fill="#5A61FF"/>
<path d="M32.4998 14.5733C33.179 14.6256 33.5971 15.096 34.0153 15.5141C36.4193 17.9181 38.7713 20.3222 41.2275 22.7262C42.4816 23.9283 42.5339 24.9735 41.2798 26.2278C38.8233 28.5795 36.4715 31.036 34.0675 33.44C33.2835 34.224 32.4475 35.0078 31.4022 33.9627C30.2001 32.8651 31.0886 31.9243 31.9249 31.0883C33.6494 29.3635 35.3219 27.5867 37.0987 25.9142C38.2486 24.869 38.4054 24.1373 37.151 23.0398C35.2174 21.3151 33.4403 19.3814 31.6113 17.5C31.0363 16.9251 30.6182 16.2457 31.0363 15.4095C31.2977 14.8869 31.7681 14.5211 32.4998 14.5733Z" fill="#5A61FF"/>
<path d="M24.0849 39.0848C22.9352 38.7714 20.5311 39.921 20.5311 37.6216C20.4788 35.0085 22.9874 36.2626 24.3985 36.0013C25.1824 35.8448 25.9664 36.0013 26.7503 36.0013C27.8478 36.0013 28.684 36.4194 28.684 37.6216C28.6318 38.8237 27.7432 39.137 26.6458 39.137C25.8618 39.085 25.0779 39.0848 24.0849 39.0848Z" fill="#5A61FF"/>
<path d="M26.125 11.3333C26.0205 12.3263 25.5502 12.9535 24.5572 12.9535C23.6687 12.9535 23.0939 12.3785 23.0939 11.5424C23.0416 10.5494 23.6687 9.92224 24.6617 9.92224C25.4456 9.86997 25.9682 10.4448 26.125 11.3333Z" fill="#5A61FF"/>
</svg>
