<?xml version="1.0" encoding="utf-8"?>
<!-- Generator: Adobe Illustrator 25.2.0, SVG Export Plug-In . SVG Version: 6.00 Build 0)  -->
<svg version="1.1" id="Layer_1" xmlns="http://www.w3.org/2000/svg" xmlns:xlink="http://www.w3.org/1999/xlink" x="0px" y="0px"
	 viewBox="0 0 48 48" style="enable-background:new 0 0 48 48;" xml:space="preserve">
<style type="text/css">
	.st0{fill:#2C3394;}
	.st1{fill:#3F4BBC;}
	.st2{opacity:0.15;fill:url(#SVGID_1_);enable-background:new    ;}
	.st3{fill:#4951B5;}
	.st4{fill:#6877E0;}
</style>
<path class="st0" d="M44.9,43.7l-3.7-8.3c1.2-2.1,1.8-4.5,1.7-6.9c0-8-6.5-14.5-14.5-14.5S14,20.5,14,28.5S20.5,43,28.5,43
	c2.5,0,5-0.7,7.2-1.9l7.8,4C44.4,45.5,45.3,44.6,44.9,43.7z"/>
<path class="st1" d="M21.5,29h16c0.3,0,0.5-0.2,0.5-0.5v-1c0-0.3-0.2-0.5-0.5-0.5h-16c-0.3,0-0.5,0.2-0.5,0.5v1
	C21,28.8,21.2,29,21.5,29z"/>
<path class="st1" d="M21.5,33h13c0.3,0,0.5-0.2,0.5-0.5v-1c0-0.3-0.2-0.5-0.5-0.5h-13c-0.3,0-0.5,0.2-0.5,0.5v1
	C21,32.8,21.2,33,21.5,33z"/>
<radialGradient id="SVGID_1_" cx="18.69" cy="32.259" r="16.113" gradientTransform="matrix(1 0 0 -1 0 49)" gradientUnits="userSpaceOnUse">
	<stop  offset="0.627" style="stop-color:#000000"/>
	<stop  offset="1" style="stop-color:#000000;stop-opacity:0"/>
</radialGradient>
<path class="st2" d="M14,28.5c0,1.4,0.2,2.7,0.6,4c1.3,0.3,2.6,0.5,4,0.5C27.6,33,35,25.6,35,16.5c0-0.3,0-0.7,0-1
	c-2-1-4.2-1.5-6.4-1.5C20.5,14,14,20.5,14,28.5z"/>
<path class="st3" d="M18.5,3C11,3,5,9,5,16.5c0,2.1,0.5,4,1.3,5.7c0,0,0,0.1,0,0.1l-3.2,7.2c-0.4,0.9,0.6,1.8,1.4,1.3l6.4-3.2
	c2.2,1.5,4.9,2.4,7.6,2.4C26,30,32,24,32,16.5S26,3,18.5,3z"/>
<path class="st4" d="M10.5,15h16c0.3,0,0.5-0.2,0.5-0.5v-1c0-0.3-0.2-0.5-0.5-0.5h-16c-0.3,0-0.5,0.2-0.5,0.5v1
	C10,14.8,10.2,15,10.5,15z"/>
<path class="st4" d="M10.5,19h13c0.3,0,0.5-0.2,0.5-0.5v-1c0-0.3-0.2-0.5-0.5-0.5h-13c-0.3,0-0.5,0.2-0.5,0.5v1
	C10,18.8,10.2,19,10.5,19z"/>
</svg>
