<svg width="51" height="51" viewBox="0 0 51 51" fill="none" xmlns="http://www.w3.org/2000/svg">
<path d="M29.2605 10.2157C27.349 10.2157 25.4375 10.2157 23.4729 10.2157C22.464 10.2157 21.7738 9.6848 21.7207 8.67594C21.7207 7.61397 22.411 7.08301 23.4198 7.08301C27.0836 7.08301 30.7471 7.08301 34.4109 7.08301C35.5261 7.08301 36.3226 7.56085 36.2693 8.7821C36.2163 9.79096 35.4199 10.2688 34.4642 10.2157C32.765 10.2157 31.0126 10.2157 29.2605 10.2157Z" fill="#5A61FF"/>
<path d="M49.0146 27.7384C49.0146 29.3313 49.0146 30.8712 49.0146 32.4641C49.0146 33.579 48.537 34.3757 47.3155 34.3225C46.3068 34.2695 45.8818 33.473 45.8818 32.4641C45.8818 29.1191 45.8818 25.8269 45.8818 22.4817C45.8818 21.4729 46.3598 20.7295 47.4218 20.7295C48.4837 20.7295 48.9617 21.4729 48.9617 22.4286C49.0146 24.234 49.0146 25.9862 49.0146 27.7384Z" fill="#5A61FF"/>
<path d="M6.00552 28.323C6.00552 29.7036 6.00552 31.1373 6.00552 32.5177C6.00552 33.5266 5.5808 34.2698 4.51884 34.3231C3.45688 34.3761 2.87284 33.7389 2.87284 32.6769C2.81973 29.5974 2.81973 26.5708 2.87284 23.4911C2.87284 22.4823 3.40381 21.792 4.46574 21.792C5.5277 21.8451 6.00552 22.5354 6.00552 23.5442C6.00552 25.1903 6.00552 26.7301 6.00552 28.323Z" fill="#5A61FF"/>
<path fill-rule="evenodd" clip-rule="evenodd" d="M43.7336 26.8938C43.7455 26.5398 43.7574 26.1839 43.7574 25.8279V25.826C43.7574 23.4373 43.7574 21.1016 43.8104 18.7128C43.7574 14.7305 41.421 12.3942 37.4388 12.3411C36.1629 12.3411 34.8823 12.3669 33.5993 12.3928C30.7708 12.4499 27.9329 12.5072 25.1201 12.288C20.5006 11.9163 16.7307 13.2968 13.8635 16.9606C12.9608 18.1287 11.8989 18.8721 10.306 18.6597C8.71303 18.4473 8.12891 19.4031 8.12891 20.8898V35.3324C8.12891 36.5536 8.55374 37.6155 9.82806 37.4563C12.1113 37.1908 13.1732 38.6245 14.182 40.1111C16.1466 42.9785 18.7485 44.1467 22.2529 43.8812C25.014 43.6687 27.8281 43.7217 30.6422 43.8812C34.0405 44.0404 36.5361 42.6067 39.0317 40.4296C42.5892 37.2971 44.4476 33.7393 43.7574 28.9606C43.6868 28.2899 43.7101 27.5958 43.7336 26.8938ZM32.1744 15.4857C31.3307 15.4798 30.4849 15.4738 29.6335 15.4738C29.1734 15.4738 28.7087 15.488 28.2421 15.5023C27.1467 15.5358 26.0408 15.5697 24.961 15.4207C21.2442 14.9428 18.3768 16.2172 16.0406 19.1375C15.8951 19.3087 15.751 19.4908 15.6045 19.676C14.842 20.64 14.0145 21.6862 12.5892 21.6862C11.3149 21.6862 11.2618 22.3765 11.2618 23.3323V30.6597C11.2618 30.9447 11.2421 31.2408 11.2225 31.5375C11.1211 33.0638 11.0193 34.5975 13.5981 34.642C14.076 34.642 14.607 35.3854 14.8724 35.9164C17.1556 40.0049 20.6601 41.3323 25.1734 40.6421C25.9167 40.5359 26.7663 40.4829 27.5096 40.6421C32.6601 41.5448 36.3768 39.3147 39.4567 35.3854C40.1469 34.4827 40.6249 33.58 40.6249 32.3589C40.5716 27.8456 40.5716 23.2792 40.6249 18.7659C40.6249 16.4827 39.5097 15.4207 37.2266 15.4738C35.5294 15.5092 33.8557 15.4974 32.1744 15.4857Z" fill="#5A61FF"/>
<path d="M27.3511 19.7725C28.0944 19.7725 28.4129 20.2504 28.4662 20.9406C28.5191 21.7371 28.5724 22.5335 28.4662 23.2769C28.2006 25.1884 28.8909 26.038 30.8555 26.3035C33.5633 26.7282 33.6696 27.2061 32.1299 29.3832C30.6963 31.3478 29.2626 33.3125 27.8289 35.2771C27.4041 35.8081 27.0324 36.5512 26.1829 36.2858C25.3333 36.0203 25.3864 35.2768 25.3864 34.5336C25.3864 34.0027 25.2802 33.4717 25.3864 32.9407C25.8112 30.8698 24.8555 29.9142 22.8378 29.7549C20.5546 29.5424 20.1298 28.6397 21.6165 26.7813C23.1563 24.8698 24.4838 22.8522 25.9705 20.8875C26.3422 20.4627 26.6608 19.9318 27.3511 19.7725Z" fill="#5A61FF"/>
</svg>
