<?xml version="1.0" encoding="utf-8"?>
<!-- Generator: Adobe Illustrator 25.2.0, SVG Export Plug-In . SVG Version: 6.00 Build 0)  -->
<svg version="1.1" id="Layer_1" xmlns="http://www.w3.org/2000/svg" xmlns:xlink="http://www.w3.org/1999/xlink" x="0px" y="0px"
	 viewBox="0 0 48 48" style="enable-background:new 0 0 48 48;" xml:space="preserve">
<style type="text/css">
	.st0{fill:#606DCC;}
	.st1{opacity:5.000000e-02;enable-background:new    ;}
	.st2{fill:#4951B5;}
	.st3{fill:#2C3394;}
</style>
<path class="st0" d="M28.3,43.2L5.5,32.1C5,31.9,4.8,31.3,5,30.8c0-0.1,0.1-0.2,0.2-0.3l13.4-13.4c0.3-0.3,0.8-0.4,1.1-0.2L42.5,28
	c0.5,0.2,0.7,0.8,0.5,1.3c0,0.1-0.1,0.2-0.2,0.3L29.5,43C29.2,43.3,28.7,43.4,28.3,43.2z"/>
<path class="st1" d="M19.7,16.9c-0.4-0.2-0.8-0.1-1.1,0.2L8.2,27.5L27.9,37c0.8,0.4,1.7,0.2,2.3-0.4l9.8-9.8L19.7,16.9z"/>
<path class="st1" d="M19.7,16.9c-0.4-0.2-0.8-0.1-1.1,0.2l-10,10l19.5,9.5c0.6,0.3,1.3,0.2,1.7-0.3l9.7-9.7L19.7,16.9z"/>
<path class="st2" d="M28.3,36.1L5.5,25C5,24.8,4.8,24.2,5,23.7c0-0.1,0.1-0.2,0.2-0.3l13.4-13.4c0.3-0.3,0.8-0.4,1.1-0.2L42.5,21
	c0.5,0.2,0.7,0.8,0.5,1.3c0,0.1-0.1,0.2-0.2,0.3L29.5,35.9C29.2,36.2,28.7,36.3,28.3,36.1z"/>
<path class="st1" d="M19.7,9.9c-0.4-0.2-0.8-0.1-1.1,0.2L8.2,20.4L27.9,30c0.8,0.4,1.7,0.2,2.3-0.4l9.8-9.8
	C40,19.7,19.7,9.9,19.7,9.9z"/>
<path class="st1" d="M19.7,9.9c-0.4-0.2-0.8-0.1-1.1,0.2l-10,10l19.5,9.5c0.6,0.3,1.3,0.2,1.7-0.3l9.7-9.7
	C39.5,19.5,19.7,9.9,19.7,9.9z"/>
<path class="st3" d="M28.3,29.1L5.5,18C5,17.7,4.8,17.1,5,16.6c0-0.1,0.1-0.2,0.2-0.3L18.5,3c0.3-0.3,0.8-0.4,1.1-0.2l22.8,11.1
	c0.5,0.2,0.7,0.8,0.5,1.3c0,0.1-0.1,0.2-0.2,0.3L29.5,28.9C29.2,29.2,28.7,29.2,28.3,29.1z"/>
</svg>
