<svg width="512" height="512" viewBox="0 0 512 512" fill="none" xmlns="http://www.w3.org/2000/svg">
<path d="M495.014 304.082C438.22 374.448 374.447 438.22 304.082 495.015C276.024 517.661 235.975 517.661 207.915 495.012C137.549 438.219 73.7783 374.448 16.9847 304.082C-5.66158 276.024 -5.66158 235.975 16.9847 207.917C73.7783 137.552 137.549 73.7811 207.915 16.9868C235.975 -5.66187 276.024 -5.66187 304.082 16.9845C374.447 73.7786 438.218 137.549 495.012 207.915C517.661 235.975 517.662 276.022 495.014 304.082Z" fill="url(#paint0_linear_351_1)"/>
<path d="M298.665 43.9062C273.769 23.8089 238.231 23.8066 213.33 43.9038C150.891 94.304 94.3038 150.891 43.9029 213.331C23.8084 238.229 23.8084 273.769 43.9029 298.668C94.3038 361.107 150.891 417.695 213.328 468.092C238.228 488.19 273.769 488.19 298.665 468.092C361.106 417.695 417.694 361.107 468.089 298.668C488.188 273.769 488.188 238.229 468.089 213.331C417.694 150.891 361.106 94.304 298.665 43.9062Z" fill="url(#paint1_linear_351_1)"/>
<path d="M201.117 489.486C203.376 491.337 205.642 493.18 207.917 495.016C235.974 517.662 276.024 517.662 304.084 495.013C374.45 438.219 438.22 374.448 495.014 304.083C517.662 276.023 517.66 235.976 495.014 207.918C493.179 205.643 491.335 203.378 489.487 201.116L201.117 489.486Z" fill="url(#paint2_linear_351_1)"/>
<path d="M407.466 230.102C378.727 200.952 325.765 148.401 297.847 120.072L258.573 93.7974C230.105 103.242 190.98 145.241 163.596 172.625C113.081 223.139 116.775 292.079 163.597 338.9C186.64 361.944 211.631 386.115 219.431 395.968C221.608 396.027 230.316 408.695 231.337 408.695L261.718 438.666L311.806 488.344L328.229 475.208C379.138 433.331 462.072 348.346 490.4 309.342L407.466 230.102Z" fill="url(#paint3_linear_351_1)"/>
<path d="M282.844 105.051C268.332 90.5923 244.965 90.5923 230.699 105.051L104.27 230.773C89.7588 245.233 89.7588 268.515 104.27 282.974L228.977 406.246C243.489 420.46 266.61 420.46 281.122 406.246L295.389 392.031C300.308 387.13 300.308 379.533 295.389 374.631L253.574 332.969C243.981 323.411 243.981 307.972 253.574 298.414L287.517 264.594C292.437 259.692 292.437 252.095 287.517 247.193L263.413 223.177C258.493 218.274 250.868 218.274 245.949 223.177L210.775 258.222C205.856 263.123 198.231 263.123 193.311 258.222L192.573 257.486C187.654 252.585 187.654 244.988 192.573 240.087L296.619 136.42C301.538 131.519 301.538 123.922 296.619 119.02L282.844 105.051Z" fill="white"/>
<path d="M280.07 188.137L314.285 153.73C319.174 148.814 326.75 148.814 331.637 153.73L406.911 229.425C421.33 243.925 421.33 267.273 406.911 281.528L330.66 358.205C325.772 363.121 318.196 363.121 313.308 358.205L279.338 324.044C274.45 319.129 274.45 311.511 279.338 306.596L321.373 264.324C326.261 259.408 326.261 251.79 321.373 246.875L280.07 205.34C275.427 200.671 275.427 193.052 280.07 188.137Z" fill="#24CA7A"/>
<defs>
<linearGradient id="paint0_linear_351_1" x1="99.2214" y1="199.094" x2="335.282" y2="284.775" gradientUnits="userSpaceOnUse">
<stop stop-color="#4141A7"/>
<stop offset="1" stop-color="#5352A5"/>
</linearGradient>
<linearGradient id="paint1_linear_351_1" x1="352.595" y1="226.855" x2="-310.996" y2="427.069" gradientUnits="userSpaceOnUse">
<stop stop-color="#423C8C" stop-opacity="0"/>
<stop offset="1" stop-color="#423C8C"/>
</linearGradient>
<linearGradient id="paint2_linear_351_1" x1="365.001" y1="365.001" x2="395.333" y2="395.334" gradientUnits="userSpaceOnUse">
<stop stop-color="#423C8C" stop-opacity="0"/>
<stop offset="1" stop-color="#423C8C"/>
</linearGradient>
<linearGradient id="paint3_linear_351_1" x1="486.717" y1="264.531" x2="313.526" y2="264.531" gradientUnits="userSpaceOnUse">
<stop stop-color="#423C8C" stop-opacity="0"/>
<stop offset="1" stop-color="#423C8C"/>
</linearGradient>
</defs>
</svg>
