<?xml version="1.0" encoding="utf-8"?>
<!-- Generator: Adobe Illustrator 25.2.0, SVG Export Plug-In . SVG Version: 6.00 Build 0)  -->
<svg version="1.1" id="Layer_1" xmlns="http://www.w3.org/2000/svg" xmlns:xlink="http://www.w3.org/1999/xlink" x="0px" y="0px"
	 viewBox="0 0 48 48" style="enable-background:new 0 0 48 48;" xml:space="preserve">
<style type="text/css">
	.st0{fill:url(#SVGID_1_);}
	.st1{fill:url(#SVGID_2_);}
	.st2{fill:url(#SVGID_3_);}
	.st3{fill:url(#SVGID_4_);}
	.st4{fill:url(#SVGID_5_);}
	.st5{fill:#4951B5;}
	.st6{fill:#2C3394;}
</style>
<linearGradient id="SVGID_1_" gradientUnits="userSpaceOnUse" x1="31.917" y1="30" x2="33.251" y2="30" gradientTransform="matrix(1 0 0 -1 0 49)">
	<stop  offset="0" style="stop-color:#C48F0C"/>
	<stop  offset="0.251" style="stop-color:#D19B16"/>
	<stop  offset="0.619" style="stop-color:#DCA51F"/>
	<stop  offset="1" style="stop-color:#E0A922"/>
</linearGradient>
<path class="st0" d="M31.9,17h-0.5v4h0.7c0.5,0,1-0.3,1-0.7l0.3-1.7C33.6,17.7,32.9,17,31.9,17z"/>
<linearGradient id="SVGID_2_" gradientUnits="userSpaceOnUse" x1="-1086.083" y1="30" x2="-1084.749" y2="30" gradientTransform="matrix(-1 0 0 -1 -1070 49)">
	<stop  offset="0" style="stop-color:#C48F0C"/>
	<stop  offset="0.251" style="stop-color:#D19B16"/>
	<stop  offset="0.619" style="stop-color:#DCA51F"/>
	<stop  offset="1" style="stop-color:#E0A922"/>
</linearGradient>
<path class="st1" d="M16.1,17h0.5v4h-0.7c-0.5,0-1-0.3-1-0.7l-0.3-1.7C14.4,17.7,15.1,17,16.1,17z"/>
<linearGradient id="SVGID_3_" gradientUnits="userSpaceOnUse" x1="24" y1="25.759" x2="24" y2="38.006" gradientTransform="matrix(1 0 0 -1 0 49)">
	<stop  offset="0.125" style="stop-color:#FFDB80"/>
	<stop  offset="0.141" style="stop-color:#FED97C"/>
	<stop  offset="0.449" style="stop-color:#F4BF3B"/>
	<stop  offset="0.594" style="stop-color:#F0B421"/>
</linearGradient>
<path class="st2" d="M24,6.1c-3.9,0-8,0.6-8,9.1v6c0,3,4.8,6.8,8,6.8s8-3.7,8-6.8v-6C32,6.7,27.9,6.1,24,6.1z"/>
<radialGradient id="SVGID_4_" cx="46.8432" cy="-1.8751" r="27.044" gradientTransform="matrix(0.8816 0 0 -0.8816 -24.994 4.0098)" gradientUnits="userSpaceOnUse">
	<stop  offset="0" style="stop-color:#C26715"/>
	<stop  offset="0.508" style="stop-color:#B85515"/>
	<stop  offset="1" style="stop-color:#AD3F16"/>
</radialGradient>
<path class="st3" d="M24,4.5c-4.4,0-5,1.6-5,1.6C17.2,6.4,15,9,15,12c0,1.7,0.3,2.9,1,7c0.5-6.5,1.2-9,3-9c1.3,0,2.3,1,5,1
	c2.3,0,2.9-1,5-1c3,0,3,8,3,9c0.6-3,1-5.6,1-7C33,8.6,30.2,4.5,24,4.5z"/>
<radialGradient id="SVGID_5_" cx="65.6909" cy="-3.8111" r="33.398" gradientTransform="matrix(0.8431 0 0 -0.8816 -32.8165 4.0098)" gradientUnits="userSpaceOnUse">
	<stop  offset="0" style="stop-color:#C26715"/>
	<stop  offset="0.508" style="stop-color:#B85515"/>
	<stop  offset="1" style="stop-color:#AD3F16"/>
</radialGradient>
<path class="st4" d="M24.2,4C20.1,4,19,6.2,19,6.2c0,1.2,0.5,2.2,0.5,2.2s0.8,1.6,5.1,1.6c2.6,0,6.4-1.6,6.4-6H24.2z"/>
<path class="st5" d="M40,21H8c-1.1,0-2,0.9-2,2c0,0.1,0,0.1,0,0.2l1.7,19c0.1,1,1,1.8,2,1.8h28.7c1,0,1.9-0.8,2-1.8l1.7-19
	c0.1-1.1-0.7-2.1-1.8-2.2C40.1,21,40.1,21,40,21z"/>
<path class="st6" d="M26.5,36h-5c-0.1,0-0.2-0.1-0.2-0.2L21,32.3c0-0.1,0.1-0.3,0.2-0.3c0,0,0,0,0,0h5.5c0.1,0,0.3,0.1,0.2,0.3
	l-0.3,3.5C26.7,35.9,26.6,36,26.5,36z"/>
</svg>
