<?xml version="1.0" encoding="utf-8"?>
<!-- Generator: Adobe Illustrator 25.2.0, SVG Export Plug-In . SVG Version: 6.00 Build 0)  -->
<svg version="1.1" id="Layer_1" xmlns="http://www.w3.org/2000/svg" xmlns:xlink="http://www.w3.org/1999/xlink" x="0px" y="0px"
	 viewBox="0 0 48 48" style="enable-background:new 0 0 48 48;" xml:space="preserve">
<style type="text/css">
	.st0{fill:url(#SVGID_1_);}
	.st1{fill:url(#SVGID_2_);}
	.st2{fill:#2C3394;}
	.st3{fill:#4951B5;}
	.st4{fill:#3A46B5;}
</style>
<linearGradient id="SVGID_1_" gradientUnits="userSpaceOnUse" x1="22.7401" y1="8.5175" x2="25.2486" y2="-0.2922" gradientTransform="matrix(0.7032 0.711 0.711 -0.7032 -9.9406 24.8114)">
	<stop  offset="0" style="stop-color:#F44F5A"/>
	<stop  offset="0.443" style="stop-color:#EE3D4A"/>
	<stop  offset="1" style="stop-color:#E52030"/>
</linearGradient>
<path class="st0" d="M12.8,40.2c-1.6,1.6-6.3,1.5-6.3,1.5s0-4.7,1.6-6.2c1.3-1.3,3.4-1.3,4.7,0S14.1,38.9,12.8,40.2z"/>
<linearGradient id="SVGID_2_" gradientUnits="userSpaceOnUse" x1="23.3195" y1="6.3838" x2="24.2588" y2="3.0852" gradientTransform="matrix(0.7032 0.711 0.711 -0.7032 -9.9406 24.8114)">
	<stop  offset="0" style="stop-color:#FFCF7B"/>
	<stop  offset="0.195" style="stop-color:#FECD76"/>
	<stop  offset="0.439" style="stop-color:#FAC666"/>
	<stop  offset="0.71" style="stop-color:#F3BC4D"/>
	<stop  offset="0.997" style="stop-color:#EAAD29"/>
	<stop  offset="1" style="stop-color:#EAAD29"/>
</linearGradient>
<path class="st1" d="M11.2,38.7c-0.8,0.8-2.3,0.8-2.3,0.8s0-1.6,0.8-2.3c0.4-0.4,1.1-0.4,1.6,0S11.7,38.2,11.2,38.7z"/>
<path class="st2" d="M30.9,8.3l9.3,9.4L22.2,35.6l-9.3-9.4L30.9,8.3z"/>
<path class="st3" d="M43.3,7.7c0.1-1.2-0.9-2.2-2.1-2.3c-0.1,0-0.1,0-0.2,0c-2.9,0.1-7.7,0.6-9.8,2.7l-0.3,0.3l9.3,9.4l0.3-0.3
	C42.7,15.4,43.2,10.5,43.3,7.7z"/>
<circle class="st3" cx="27.4" cy="21.1" r="3.9"/>
<circle class="st2" cx="27.4" cy="21.1" r="2.7"/>
<path class="st4" d="M30.8,27L30.1,36c-0.1,0.8-0.4,1.5-1,2.1l-4.6,4.6l-2.3-7L30.8,27z M12.9,26.2l-7-2.4l4.6-4.6
	c0.6-0.6,1.3-0.9,2.1-0.9l8.9-0.6L12.9,26.2z"/>
<path class="st3" d="M18.3,36.4l-6.2-6.3c-0.9-0.9-0.9-2.3,0-3.1l0.8-0.8l9.3,9.4l-0.8,0.8C20.5,37.2,19.1,37.2,18.3,36.4z"/>
<path class="st2" d="M13.2,37.4l-2.2-2.3c-0.7-0.7-0.8-1.8-0.3-2.7l1.5-2.4l6.2,6.3l-2.4,1.4C15,38.3,13.9,38.2,13.2,37.4z"/>
</svg>
