<svg xmlns="http://www.w3.org/2000/svg" viewBox="0 0 48 48"><path fill="#61e3a7" d="M43 33H5a1 1 0 0 1-1-1V14a1 1 0 0 1 1-1h38a1 1 0 0 1 1 1v18a1 1 0 0 1-1 1z"/><path fill="#33c481" d="M9 13v20h30V13H9zm11 17a7 7 0 1 1 0-14 7 7 0 0 1 0 14zm16.5 0a1.5 1.5 0 1 1 .001-3.001A1.5 1.5 0 0 1 36.5 30zm-6 0a1.5 1.5 0 1 1 .001-3.001A1.5 1.5 0 0 1 30.5 30z"/><path d="M39 21c-3.024 0-5.66 1.804-5.9 7.092C29.704 29.748 28.126 33 28.126 33h11.4l1.079-2.175c.199-.4.304-.847.304-1.294v-6.622C40.909 21.785 39.902 21 39 21z" opacity=".018"/><path d="M39 21c-3.148 0-5.594 2.054-5.81 7.154C29.874 29.726 28.233 33 28.233 33h11.191l1.1-2.215c.193-.388.294-.821.294-1.254v-6.713c0-1.069-.96-1.818-1.818-1.818z" opacity=".036"/><path d="M39 21c-3.272 0-5.528 2.304-5.72 7.216C30.044 29.704 28.341 33 28.341 33h10.982l1.12-2.256a2.73 2.73 0 0 0 .285-1.213v-6.804C40.727 21.713 39.813 21 39 21z" opacity=".054"/><path d="M39 21c-3.396 0-5.462 2.555-5.63 7.279C30.215 29.681 28.449 33 28.449 33h10.772l1.14-2.296a2.65 2.65 0 0 0 .275-1.173v-6.894c0-.96-.867-1.637-1.636-1.637z" opacity=".073"/><path d="M39 21c-3.52 0-5.396 2.805-5.54 7.341C30.385 29.659 28.556 33 28.556 33H39.12l1.16-2.337c.174-.351.266-.741.266-1.132v-6.985C40.545 21.641 39.725 21 39 21z" opacity=".091"/><path d="M39 21c-3.644 0-5.33 3.055-5.45 7.403C30.555 29.637 28.664 33 28.664 33h10.354l1.18-2.377a2.46 2.46 0 0 0 .256-1.092v-7.076C40.455 21.605 39.68 21 39 21z" opacity=".109"/><path d="M39 21c-3.767 0-5.264 3.305-5.36 7.465C30.726 29.615 28.772 33 28.772 33h10.145l1.2-2.418c.162-.326.247-.687.247-1.051v-7.167c0-.795-.728-1.364-1.364-1.364z" opacity=".127"/><path d="M39 21c-3.891 0-5.198 3.556-5.27 7.528C30.896 29.592 28.879 33 28.879 33h9.936l1.22-2.458c.156-.314.237-.661.237-1.011v-7.258C40.273 21.533 39.592 21 39 21z" opacity=".145"/><path d="M39 21c-4.015 0-5.132 3.806-5.18 7.59-2.754.98-4.833 4.41-4.833 4.41h9.726l1.241-2.499c.15-.301.228-.634.228-.97v-7.349c0-.685-.635-1.182-1.182-1.182z" opacity=".164"/><path d="M39 21c-4.139 0-5.066 4.056-5.09 7.652-2.674.896-4.815 4.348-4.815 4.348h9.517l1.261-2.539c.143-.289.218-.607.218-.93v-7.44c0-.63-.588-1.091-1.091-1.091z" opacity=".182"/><path d="M39 21c-4.263 0-5 4.306-5 7.714-2.593.811-4.797 4.286-4.797 4.286h9.308l1.281-2.58c.137-.276.208-.581.208-.889V22c0-.575-.541-1-1-1z" opacity=".2"/><linearGradient id="a" x1="21.943" x2="32.073" y1="20.139" y2="44.383" gradientUnits="userSpaceOnUse"><stop offset="0" stop-color="#ffcf54"/><stop offset=".261" stop-color="#fdcb4d"/><stop offset=".639" stop-color="#f7c13a"/><stop offset="1" stop-color="#f0b421"/></linearGradient><path fill="url(#a)" d="M39 21c-4.263 0-5 4.306-5 7.714-2.593.811-4.797 4.286-4.797 4.286H11c.003 4.061 1.841 6.249 2.421 8 .838 2.531 2.444 3 3.511 3H29c2.82 0 4.5-1.744 5.821-4.569L38.51 33l1.281-2.58c.138-.276.209-.581.209-.889V22c0-.575-.541-1-1-1z"/><path fill="#ffde87" d="M40 22.027h-.366c-.902 0-1.634.732-1.634 1.634v1.796c0 .376.305.681.681.681H40v-4.111z"/><linearGradient id="b" x1="20.497" x2="19.839" y1="36.264" y2="31.578" gradientUnits="userSpaceOnUse"><stop offset=".325" stop-color="#8f6b13" stop-opacity="0"/><stop offset="1" stop-color="#8f6b13"/></linearGradient><path fill="url(#b)" d="M16.932 44H22l7.203-11H11c.003 4.061 1.841 6.249 2.421 8 .838 2.531 2.444 3 3.511 3z"/><linearGradient id="c" x1="27.606" x2="30.622" y1="8.565" y2="13.027" gradientUnits="userSpaceOnUse"><stop offset="0" stop-color="#ffcf54"/><stop offset=".261" stop-color="#fdcb4d"/><stop offset=".639" stop-color="#f7c13a"/><stop offset="1" stop-color="#f0b421"/></linearGradient><path fill="url(#c)" d="M32 10.5a2.5 2.5 0 1 0-5 0V13h5v-2.5z"/><linearGradient id="d" x1="17.48" x2="20.949" y1="6.624" y2="13.176" gradientUnits="userSpaceOnUse"><stop offset="0" stop-color="#ffcf54"/><stop offset=".261" stop-color="#fdcb4d"/><stop offset=".639" stop-color="#f7c13a"/><stop offset="1" stop-color="#f0b421"/></linearGradient><path fill="url(#d)" d="M22 8.5a2.5 2.5 0 1 0-5 0V13h5V8.5z"/><linearGradient id="e" x1="13.142" x2="14.909" y1="9.85" y2="13.222" gradientUnits="userSpaceOnUse"><stop offset="0" stop-color="#ffcf54"/><stop offset=".261" stop-color="#fdcb4d"/><stop offset=".639" stop-color="#f7c13a"/><stop offset="1" stop-color="#f0b421"/></linearGradient><path fill="url(#e)" d="M17 12.5a2.5 2.5 0 1 0-5 0v.5h5v-.5z"/><linearGradient id="f" x1="22.062" x2="26.27" y1="4.544" y2="13.023" gradientUnits="userSpaceOnUse"><stop offset="0" stop-color="#ffcf54"/><stop offset=".261" stop-color="#fdcb4d"/><stop offset=".639" stop-color="#f7c13a"/><stop offset="1" stop-color="#f0b421"/></linearGradient><path fill="url(#f)" d="M27 6.5a2.5 2.5 0 1 0-5 0V13h5V6.5z"/></svg>