<svg xmlns="http://www.w3.org/2000/svg" viewBox="0 0 48 48"><linearGradient id="a" x1="-308.751" x2="36.906" y1="328.874" y2="-67.567" gradientTransform="matrix(1 0 0 -1 0 -18)" gradientUnits="userSpaceOnUse"><stop offset="0" stop-color="#ffda1c"/><stop offset="1" stop-color="#feb705"/></linearGradient><path fill="url(#a)" d="M44.634 37.846 25.76 7.787s-.508-1.05-1.76-1.05-1.76 1.05-1.76 1.05L3.366 37.846S3 38.337 3 39a2 2 0 0 0 2 2h38a2 2 0 0 0 2-2c0-.663-.366-1.154-.366-1.154z"/><radialGradient id="b" cx="18.189" cy="-34.781" r="22.363" gradientTransform="matrix(1 0 0 -1 0 -18)" gradientUnits="userSpaceOnUse"><stop offset="0" stop-color="#4b4b4b"/><stop offset=".531" stop-color="#393939"/><stop offset="1" stop-color="#252525"/></radialGradient><path fill="url(#b)" d="M24.014 37c-.732 0-1.336-.222-1.812-.666s-.714-.981-.714-1.613c0-.659.24-1.199.721-1.62.48-.421 1.082-.631 1.805-.631.732 0 1.332.213 1.798.638.467.426.7.963.7 1.613 0 .659-.231 1.203-.693 1.633S24.755 37 24.014 37zm2.222-19.279-.481 12.175a.694.694 0 0 1-.693.666h-2.179a.694.694 0 0 1-.693-.668l-.455-12.174a.694.694 0 0 1 .693-.72h3.116c.393 0 .708.327.692.721z"/><path fill="#cf1928" d="m7.626 13.04-2.829-2.829a.5.5 0 0 1 0-.707l.707-.707a.5.5 0 0 1 .707 0l2.829 2.829a.5.5 0 0 1 0 .707l-.707.707a.5.5 0 0 1-.707 0zM5.5 19h-3a.5.5 0 0 1-.5-.5v-1a.5.5 0 0 1 .5-.5h3a.5.5 0 0 1 .5.5v1a.5.5 0 0 1-.5.5zM14.5 10h-1a.5.5 0 0 1-.5-.5v-3a.5.5 0 0 1 .5-.5h1a.5.5 0 0 1 .5.5v3a.5.5 0 0 1-.5.5zM39.667 13.04l-.707-.707a.5.5 0 0 1 0-.707l2.829-2.829a.5.5 0 0 1 .707 0l.707.707a.5.5 0 0 1 0 .707l-2.829 2.829a.5.5 0 0 1-.707 0zM42 18.5v-1a.5.5 0 0 1 .5-.5h3a.5.5 0 0 1 .5.5v1a.5.5 0 0 1-.5.5h-3a.5.5 0 0 1-.5-.5zM33 9.5v-3a.5.5 0 0 1 .5-.5h1a.5.5 0 0 1 .5.5v3a.5.5 0 0 1-.5.5h-1a.5.5 0 0 1-.5-.5z"/></svg>