<svg xmlns="http://www.w3.org/2000/svg" viewBox="0 0 48 48"><linearGradient id="a" x1="6.414" x2="41.774" y1="376.338" y2="350.512" gradientTransform="matrix(1 0 0 -1 0 390)" gradientUnits="userSpaceOnUse"><stop offset="0" stop-color="#28afea"/><stop offset="1" stop-color="#047ed6"/></linearGradient><path fill="url(#a)" d="M6 40V12h36v28c0 1.1-.9 2-2 2H8c-1.1 0-2-.9-2-2z"/><linearGradient id="b" x1="6.42" x2="41.198" y1="383.392" y2="376.32" gradientTransform="matrix(1 0 0 -1 0 390)" gradientUnits="userSpaceOnUse"><stop offset="0" stop-color="#0077d2"/><stop offset="1" stop-color="#0b59a2"/></linearGradient><path fill="url(#b)" d="M42 8v6H6V8c0-1.1.9-2 2-2h32c1.1 0 2 .9 2 2z"/><path d="M35.5 12.5a3 3 0 0 1-3-3V6h6v3.5a3 3 0 0 1-3 3z" opacity=".05"/><path d="M35.5 11.75a2.25 2.25 0 0 1-2.25-2.25V6h4.5v3.5a2.25 2.25 0 0 1-2.25 2.25z" opacity=".07"/><path d="M12.5 12.5a3 3 0 0 1-3-3V6h6v3.5a3 3 0 0 1-3 3z" opacity=".05"/><path d="M12.5 11.75a2.25 2.25 0 0 1-2.25-2.25V6h4.5v3.5a2.25 2.25 0 0 1-2.25 2.25z" opacity=".07"/><path fill="#3ccbf4" d="M12.5 11A1.5 1.5 0 0 1 11 9.5v-4a1.5 1.5 0 0 1 3 0v4a1.5 1.5 0 0 1-1.5 1.5z"/><path fill="#fff" d="M38 19.5v3a.5.5 0 0 1-.5.5h-3a.5.5 0 0 1-.5-.5v-3a.5.5 0 0 1 .5-.5h3a.5.5 0 0 1 .5.5zm-8 0v3a.5.5 0 0 1-.5.5h-3a.5.5 0 0 1-.5-.5v-3a.5.5 0 0 1 .5-.5h3a.5.5 0 0 1 .5.5zm-8 0v3a.5.5 0 0 1-.5.5h-3a.5.5 0 0 1-.5-.5v-3a.5.5 0 0 1 .5-.5h3a.5.5 0 0 1 .5.5zM38 26.5v3a.5.5 0 0 1-.5.5h-3a.5.5 0 0 1-.5-.5v-3a.5.5 0 0 1 .5-.5h3a.5.5 0 0 1 .5.5zm-8 0v3a.5.5 0 0 1-.5.5h-3a.5.5 0 0 1-.5-.5v-3a.5.5 0 0 1 .5-.5h3a.5.5 0 0 1 .5.5zm-8 0v3a.5.5 0 0 1-.5.5h-3a.5.5 0 0 1-.5-.5v-3a.5.5 0 0 1 .5-.5h3a.5.5 0 0 1 .5.5zm-8 0v3a.5.5 0 0 1-.5.5h-3a.5.5 0 0 1-.5-.5v-3a.5.5 0 0 1 .5-.5h3a.5.5 0 0 1 .5.5zM30 33.5v3a.5.5 0 0 1-.5.5h-3a.5.5 0 0 1-.5-.5v-3a.5.5 0 0 1 .5-.5h3a.5.5 0 0 1 .5.5zm-8 0v3a.5.5 0 0 1-.5.5h-3a.5.5 0 0 1-.5-.5v-3a.5.5 0 0 1 .5-.5h3a.5.5 0 0 1 .5.5zm-8 0v3a.5.5 0 0 1-.5.5h-3a.5.5 0 0 1-.5-.5v-3a.5.5 0 0 1 .5-.5h3a.5.5 0 0 1 .5.5z"/><path fill="#3ccbf4" d="M35.5 11A1.5 1.5 0 0 1 34 9.5v-4a1.5 1.5 0 0 1 3 0v4a1.5 1.5 0 0 1-1.5 1.5z"/><radialGradient id="c" cx="38.085" cy="37.404" r="11.346" gradientUnits="userSpaceOnUse"><stop offset="0"/><stop offset="1" stop-opacity="0"/></radialGradient><path fill="url(#c)" d="M38 26c-6.627 0-12 5.373-12 12 0 1.405.254 2.747.697 4H40c1.1 0 2-.9 2-2V26.697A11.966 11.966 0 0 0 38 26z"/><linearGradient id="d" x1="31.136" x2="45.056" y1="358.864" y2="344.944" gradientTransform="matrix(1 0 0 -1 0 390)" gradientUnits="userSpaceOnUse"><stop offset="0" stop-color="#fede00"/><stop offset="1" stop-color="#ffd000"/></linearGradient><circle cx="38" cy="38" r="10" fill="url(#d)"/><circle cx="38" cy="38" r="8" fill="#f5be00"/><path fill="#fee119" d="M35.767 41.685v-1.49a3.256 3.256 0 0 0 1.728.497c.46 0 .82-.109 1.079-.328.259-.219.389-.516.389-.892 0-.784-.554-1.176-1.662-1.176-.361 0-.797.033-1.309.099v-4.423h4.384v1.425h-2.893v1.584c.232-.022.451-.033.657-.033.813 0 1.45.214 1.91.64.46.427.69 1.002.69 1.723 0 .798-.274 1.451-.823 1.957-.548.507-1.292.759-2.231.759-.76.001-1.4-.113-1.919-.342z"/></svg>