<svg xmlns="http://www.w3.org/2000/svg" viewBox="0 0 48 48"><path fill="#0dad57" d="M34 45H14a2 2 0 0 1-2-2V9h24v34a2 2 0 0 1-2 2z"/><path d="m29.26 22.395.923-1.599c.419-.741.135-1.381-.465-1.736s-1.326-.173-1.743.465l-.974 1.688A8.938 8.938 0 0 0 24 20.697a8.938 8.938 0 0 0-3.001.516l-.974-1.688c-.238-.51-1.055-.865-1.743-.465a1.28 1.28 0 0 0-.464 1.738l.922 1.597c-2.125 1.522-3.835 4.779-3.835 7.605h18.189c.001-2.553-1.709-6.083-3.834-7.605z" opacity=".05"/><path d="m28.588 22.559 1.161-2.012c.247-.436.083-.84-.283-1.055s-.812-.102-1.059.283l-1.193 2.068a8.346 8.346 0 0 0-6.43 0l-1.193-2.068c-.157-.32-.649-.521-1.059-.283a.776.776 0 0 0-.282 1.056l1.16 2.011c-2.189 1.393-3.837 4.176-3.959 6.941h17.095c-.121-2.628-1.769-5.549-3.958-6.941z" opacity=".07"/><path fill="#30dc80" d="M36 9H12V6a2 2 0 0 1 2-2h20a2 2 0 0 1 2 2v3z"/><circle cx="20" cy="6.5" r=".75" fill="#146941"/><path fill="#146941" d="M27.5 5.75h-5a.75.75 0 0 0 0 1.5h5a.75.75 0 0 0 0-1.5z"/><path fill="#fff" d="M24 21.696A8.034 8.034 0 0 0 16 29h16a8.034 8.034 0 0 0-8-7.304zm3.06 4.33a.666.666 0 1 1 1.332 0 .666.666 0 0 1-1.332 0zm-6.786.667a.666.666 0 1 1 0-1.332.666.666 0 0 1 0 1.332z"/><path fill="#fff" d="M27.346 23.438a.273.273 0 0 1-.237-.411l1.732-3.003a.273.273 0 1 1 .474.274l-1.732 3.003a.272.272 0 0 1-.237.137zM20.654 23.438a.272.272 0 0 1-.237-.137l-1.732-3.003a.273.273 0 1 1 .474-.274l1.732 3.003a.273.273 0 0 1-.237.411z"/></svg>