<svg xmlns="http://www.w3.org/2000/svg" data-name="Слой 1" viewBox="0 0 48 48"><defs><linearGradient id="a" x1="17.738" x2="37.945" y1="7.296" y2="62.815" gradientUnits="userSpaceOnUse"><stop offset=".002" stop-color="#427fdb"/><stop offset=".397" stop-color="#2668cb"/><stop offset=".763" stop-color="#1358bf"/><stop offset="1" stop-color="#0c52bb"/></linearGradient><linearGradient id="b" x1="24" x2="24" y1="3.576" y2="9.972" data-name="Новый образец градиентной зал 3" gradientUnits="userSpaceOnUse"><stop offset="0" stop-color="#32bdef"/><stop offset="1" stop-color="#1ea2e4"/></linearGradient></defs><path fill="url(#a)" d="M12 13h24v23H12z"/><path fill="#50e6ff" d="M24 7 6 14h35L24 7z"/><path fill="#42a4ed" d="M1 42h46v-2a1 1 0 0 0-1-1H2a1 1 0 0 0-1 1Z"/><path fill="#35c1f1" d="M6 42h36v-2a1 1 0 0 0-1-1H7a1 1 0 0 0-1 1ZM3 39h42v-2a1 1 0 0 0-1-1H4a1 1 0 0 0-1 1Z"/><path fill="#50e6ff" d="M8 39h32v-2a1 1 0 0 0-1-1H9a1 1 0 0 0-1 1Z"/><path fill="#35c1f1" d="M41 15H6a1 1 0 0 1-.345-1.938l18-7a1.001 1.001 0 0 1 .691 0l17 7A1 1 0 0 1 41 15Zm-30.393-2h26.786L24 8.064Z"/><circle cx="24" cy="10.999" r="1" fill="url(#b)"/><path fill="#35c1f1" d="M34 15.5h4V34h-4zM9 15.5h4V34H9zM38 34h-4a1 1 0 0 0-1 1v1h6v-1a1 1 0 0 0-1-1ZM13 34H9a1 1 0 0 0-1 1v1h6v-1a1 1 0 0 0-1-1Z"/><path fill="#50e6ff" d="M39 15h-6v1a1 1 0 0 0 1 1h4a1 1 0 0 0 1-1ZM14 15H8v1a1 1 0 0 0 1 1h4a1 1 0 0 0 1-1Z"/><path d="M23.765 17a.304.304 0 0 1 .303.304v1.399a8.064 8.064 0 0 1 2.62.427.746.746 0 0 1 .416.779v1.27a.39.39 0 0 1-.393.392.408.408 0 0 1-.174-.04 7.439 7.439 0 0 0-3.076-.699c-.473 0-1.989.071-1.989 1.42 0 2.581 6.451 1.727 6.451 6.097 0 1.673-1.023 3.568-3.854 3.804v1.543a.304.304 0 0 1-.303.304h-.608a.304.304 0 0 1-.303-.304v-1.545a11.042 11.042 0 0 1-3.22-.77.689.689 0 0 1-.423-.632v-1.447a.393.393 0 0 1 .39-.394.384.384 0 0 1 .176.042 8.49 8.49 0 0 0 3.684.925c1.51 0 1.989-.646 1.989-1.396 0-2.386-6.451-1.487-6.451-6.017 0-2.484 1.962-3.552 3.854-3.737v-1.421a.304.304 0 0 1 .304-.304h.607m0-1h-.607a1.305 1.305 0 0 0-1.304 1.304v.572A4.608 4.608 0 0 0 18 22.462c0 3.321 2.793 4.355 4.64 5.04.721.266 1.81.67 1.81.977 0 .108 0 .396-.988.396a7.576 7.576 0 0 1-3.228-.815 1.39 1.39 0 0 0-2.022 1.242v1.447a1.689 1.689 0 0 0 1.03 1.553 11.709 11.709 0 0 0 2.613.733v.661A1.305 1.305 0 0 0 23.158 35h.608a1.305 1.305 0 0 0 1.303-1.304v-.681a4.643 4.643 0 0 0 3.854-4.666c0-3.155-2.703-4.205-4.492-4.9-.963-.373-1.958-.76-1.958-1.198 0-.346.537-.418.988-.418a6.42 6.42 0 0 1 2.652.604 1.395 1.395 0 0 0 1.991-1.257v-1.271a1.734 1.734 0 0 0-1.053-1.71 7.563 7.563 0 0 0-1.983-.434v-.461A1.305 1.305 0 0 0 23.765 16Z" opacity=".05"/><path d="M23.765 17a.304.304 0 0 1 .303.304v1.399a8.064 8.064 0 0 1 2.62.427.746.746 0 0 1 .416.779v1.27a.39.39 0 0 1-.393.392.408.408 0 0 1-.174-.04 7.439 7.439 0 0 0-3.076-.699c-.473 0-1.989.071-1.989 1.42 0 2.581 6.451 1.727 6.451 6.097 0 1.673-1.023 3.568-3.854 3.804v1.543a.304.304 0 0 1-.303.304h-.608a.304.304 0 0 1-.303-.304v-1.545a11.042 11.042 0 0 1-3.22-.77.689.689 0 0 1-.423-.632v-1.447a.393.393 0 0 1 .39-.394.384.384 0 0 1 .176.042 8.49 8.49 0 0 0 3.684.925c1.51 0 1.989-.646 1.989-1.396 0-2.386-6.451-1.487-6.451-6.017 0-2.484 1.962-3.552 3.854-3.737v-1.421a.304.304 0 0 1 .304-.304h.607m0-.5h-.607a.804.804 0 0 0-.804.804v.984c-1.939.327-3.854 1.565-3.854 4.174 0 2.973 2.493 3.896 4.314 4.57 1.33.493 2.137.836 2.137 1.447 0 .245 0 .896-1.489.896a8.102 8.102 0 0 1-3.456-.87.89.89 0 0 0-1.294.797v1.447a1.19 1.19 0 0 0 .727 1.093 11.563 11.563 0 0 0 2.916.76v1.094a.804.804 0 0 0 .803.804h.608a.804.804 0 0 0 .803-.804v-1.098a4.208 4.208 0 0 0 3.854-4.25c0-2.812-2.314-3.71-4.173-4.433-1.412-.548-2.277-.922-2.277-1.664 0-.61.5-.919 1.488-.919a6.931 6.931 0 0 1 2.864.652.902.902 0 0 0 .386.087.893.893 0 0 0 .893-.891v-1.271a1.217 1.217 0 0 0-.735-1.245 7.783 7.783 0 0 0-2.3-.438v-.922a.804.804 0 0 0-.804-.804Z" opacity=".07"/><path fill="#fff" d="M27.923 28.349c0-4.37-6.45-3.516-6.45-6.098 0-1.348 1.515-1.419 1.988-1.419a7.439 7.439 0 0 1 3.076.7.393.393 0 0 0 .567-.352v-1.271a.746.746 0 0 0-.417-.78 8.064 8.064 0 0 0-2.619-.426v-1.4a.304.304 0 0 0-.303-.303h-.607a.304.304 0 0 0-.304.304v1.421C20.962 18.91 19 19.978 19 22.462c0 4.53 6.45 3.631 6.45 6.017 0 .75-.479 1.396-1.988 1.396a8.49 8.49 0 0 1-3.684-.925.39.39 0 0 0-.566.352v1.447a.689.689 0 0 0 .423.633 11.041 11.041 0 0 0 3.22.769v1.545a.304.304 0 0 0 .303.304h.608a.304.304 0 0 0 .303-.304v-1.543c2.831-.236 3.854-2.131 3.854-3.804Z"/></svg>