<svg xmlns="http://www.w3.org/2000/svg" viewBox="0 0 48 48"><path fill="#61e3a7" d="M9.216 40.372 3.06 23.458a1 1 0 0 1 .598-1.282L39.366 9.179a1 1 0 0 1 1.282.598l6.157 16.914a1 1 0 0 1-.598 1.282L10.498 40.97a1 1 0 0 1-1.282-.598z"/><path fill="#107c42" d="m7.417 20.808 6.84 18.794 28.191-10.261-6.84-18.794L7.417 20.808zM22.113 26.1a7 7 0 1 1 13.156-4.788A7 7 0 0 1 22.113 26.1zm-8.456 8.931a1.501 1.501 0 1 1 2.822-1.025 1.501 1.501 0 0 1-2.822 1.025zm3.759-1.368a1.501 1.501 0 1 1 2.822-1.025 1.501 1.501 0 0 1-2.822 1.025z"/><path d="m6.096 31.803 1.256 3.45a1.984 1.984 0 0 0 1.436.303l.001-.001 32.173-5.673 5.244-1.909a1 1 0 0 0 .598-1.282L40.648 9.777a1 1 0 0 0-1.282-.598L4.355 21.922l1.741 9.881z" opacity=".05"/><linearGradient id="a" x1="24.022" x2="24.022" y1="-597.203" y2="-578.676" gradientTransform="rotate(180 24.933 -281)" gradientUnits="userSpaceOnUse"><stop offset="0"/><stop offset=".188" stop-color="#040405"/><stop offset=".397" stop-color="#111212"/><stop offset=".615" stop-color="#262828"/><stop offset=".838" stop-color="#444647"/><stop offset="1" stop-color="#5e6162"/></linearGradient><path fill="url(#a)" d="M39.366 9.179 4.831 21.75l1.658 9.405.915 3.352a1.267 1.267 0 0 0 1.297.557l.001-.001 32.076-5.656 5.344-1.434a.995.995 0 0 0 .713-.741c.005-.024.011-.047.014-.071.01-.066.007-.135.004-.203a.959.959 0 0 0-.049-.267L40.648 9.777a1 1 0 0 0-1.282-.598z" opacity=".07"/><path fill="#61e3a7" d="M7.458 33.76 4.332 16.033a1 1 0 0 1 .811-1.158l37.423-6.599a1 1 0 0 1 1.158.811l3.125 17.727a1 1 0 0 1-.811 1.158L8.616 34.57a.999.999 0 0 1-1.158-.81z"/><path fill="#21a366" d="m9.082 14.179 3.473 19.696 29.544-5.209L38.626 8.97 9.082 14.179zm13.554 7.765a7 7 0 1 1 13.788-2.43 7 7 0 0 1-13.788 2.43zm-9.878 7.326a1.5 1.5 0 1 1 2.955-.521 1.5 1.5 0 0 1-2.955.521zm3.939-.694a1.5 1.5 0 1 1 2.955-.521 1.5 1.5 0 0 1-2.955.521z"/><path d="m40.207 29 5.832-1.029a.999.999 0 0 0 .811-1.158L43.724 9.087a1 1 0 0 0-1.158-.811L5.865 14.747v9.982l.661 3.745A1.98 1.98 0 0 0 7.865 29h32.342z" opacity=".05"/><linearGradient id="b" x1="23.272" x2="23.272" y1="-590.651" y2="-567.335" gradientTransform="rotate(180 24.933 -281)" gradientUnits="userSpaceOnUse"><stop offset="0"/><stop offset=".188" stop-color="#040405"/><stop offset=".397" stop-color="#111212"/><stop offset=".615" stop-color="#262828"/><stop offset=".838" stop-color="#444647"/><stop offset="1" stop-color="#5e6162"/></linearGradient><path fill="url(#b)" d="M42.566 8.276 6.364 14.659v10.058l.196 2.256c0 .277.359 1.264.635 1.264.178.162 1.113.263 1.371.263h31.971l5.024-.444c.037 0 .161-.029.196-.037.054-.012.258-.058.303-.086.011-.007.04-.017.05-.025.039-.028.203-.085.233-.123a.962.962 0 0 0 .259-.226.98.98 0 0 0 .088-.138.933.933 0 0 0 .101-.271c.057-.099.023-.54.002-.66L43.724 9.087a1 1 0 0 0-1.158-.811z" opacity=".07"/><path fill="#61e3a7" d="M6.865 27V9a1 1 0 0 1 1-1h38a1 1 0 0 1 1 1v18a1 1 0 0 1-1 1h-38a1 1 0 0 1-1-1z"/><path fill="#33c481" d="M11.865 8v20h30V8h-30zm12 10a7 7 0 1 1 14 0 7 7 0 0 1-14 0zm-11 5.5a1.5 1.5 0 1 1 3.001.001 1.5 1.5 0 0 1-3.001-.001zm4 0a1.5 1.5 0 1 1 3.001.001 1.5 1.5 0 0 1-3.001-.001z"/><radialGradient id="c" cx="36.372" cy="36.665" r="9.885" gradientUnits="userSpaceOnUse"><stop offset="0"/><stop offset="1" stop-opacity="0"/></radialGradient><path fill="url(#c)" d="M45.125 28.367A11.92 11.92 0 0 0 38 26c-5.652 0-10.392 3.933-11.657 9.203l18.782-6.836z"/><radialGradient id="d" cx="41.156" cy="30.111" r="9.05" gradientUnits="userSpaceOnUse"><stop offset="0"/><stop offset="1" stop-opacity="0"/></radialGradient><path fill="url(#d)" d="M41 20.778c-4.962 0-9 4.037-9 9 0 1.111.212 2.171.582 3.154l13.625-4.959a.984.984 0 0 0 .617-.728c.006-.021.012-.042.016-.064.007-.048.017-.094.017-.143.001-.013.008-.024.008-.038v-4.034A8.957 8.957 0 0 0 41 20.778z"/><circle cx="41" cy="29.778" r="7" fill="#ff8f6b"/><circle cx="41" cy="29.778" r="5" fill="#ed6c47"/><linearGradient id="e" x1="31.136" x2="45.056" y1="-174.864" y2="-160.944" gradientTransform="translate(0 206)" gradientUnits="userSpaceOnUse"><stop offset="0" stop-color="#fede00"/><stop offset="1" stop-color="#ffd000"/></linearGradient><circle cx="38" cy="38" r="10" fill="url(#e)"/><circle cx="38" cy="38" r="8" fill="#f5be00"/><path fill="#fee119" d="M35.767 41.685v-1.49a3.256 3.256 0 0 0 1.728.497c.46 0 .82-.109 1.079-.328.259-.219.389-.516.389-.892 0-.784-.554-1.176-1.662-1.176-.361 0-.797.033-1.309.099v-4.423h4.384v1.425h-2.893v1.584c.232-.022.451-.033.657-.033.813 0 1.45.214 1.91.64.46.427.69 1.002.69 1.723 0 .798-.274 1.451-.823 1.957-.548.507-1.292.759-2.231.759-.76.001-1.4-.113-1.919-.342z"/></svg>