<svg xmlns="http://www.w3.org/2000/svg" viewBox="0 0 48 48"><path fill="#50e6ff" d="M4 38V14h40v24c0 1.1-.9 2-2 2H6c-1.1 0-2-.9-2-2z"/><linearGradient id="a" x1="4.614" x2="42.936" y1="-297.741" y2="-305.533" gradientTransform="matrix(1 0 0 -1 0 -290)" gradientUnits="userSpaceOnUse"><stop offset="0" stop-color="#0077d2"/><stop offset="1" stop-color="#0b59a2"/></linearGradient><path fill="url(#a)" d="M44 10v5H4v-5c0-1.1.9-2 2-2h36c1.1 0 2 .9 2 2z"/><linearGradient id="b" x1="16" x2="42" y1="-301.5" y2="-301.5" gradientTransform="matrix(1 0 0 -1 0 -290)" gradientUnits="userSpaceOnUse"><stop offset="0" stop-color="#7dd8f3"/><stop offset="1" stop-color="#45b0d0"/></linearGradient><path fill="url(#b)" d="M16.5 13h25a.5.5 0 0 0 .5-.5v-2a.5.5 0 0 0-.5-.5h-25a.5.5 0 0 0-.5.5v2a.5.5 0 0 0 .5.5z"/><linearGradient id="c" x1="6.751" x2="8.032" y1="-300.416" y2="-302.269" gradientTransform="matrix(1 0 0 -1 0 -290)" gradientUnits="userSpaceOnUse"><stop offset="0" stop-color="#75daff"/><stop offset="1" stop-color="#49bef1"/></linearGradient><circle cx="7.5" cy="11.5" r="1.5" fill="url(#c)"/><linearGradient id="d" x1="11.751" x2="13.032" y1="-300.416" y2="-302.269" gradientTransform="matrix(1 0 0 -1 0 -290)" gradientUnits="userSpaceOnUse"><stop offset="0" stop-color="#75daff"/><stop offset="1" stop-color="#49bef1"/></linearGradient><circle cx="12.5" cy="11.5" r="1.5" fill="url(#d)"/><path d="M24 37c-5.238 0-9.5-4.262-9.5-9.5S18.762 18 24 18s9.5 4.262 9.5 9.5S29.238 37 24 37zm-.644-5.047A4.505 4.505 0 0 0 28.5 27.5a4.42 4.42 0 0 0-.14-1.107l-5.004 5.56zM24 23a4.505 4.505 0 0 0-4.5 4.5c0 .376.047.747.14 1.107l5.005-5.561A4.62 4.62 0 0 0 24 23z" opacity=".05"/><path d="M24 36.5c-4.962 0-9-4.037-9-9 0-4.962 4.038-9 9-9s9 4.038 9 9c0 4.963-4.038 9-9 9zm-1.576-4.259A4.903 4.903 0 0 0 24 32.5c2.757 0 5-2.243 5-5 0-.713-.155-1.416-.452-2.064l-6.124 6.805zM24 22.5c-2.757 0-5 2.243-5 5 0 .713.155 1.416.452 2.064l6.125-6.805A4.909 4.909 0 0 0 24 22.5z" opacity=".07"/><linearGradient id="e" x1="17.254" x2="30.227" y1="31.984" y2="9.899" gradientTransform="matrix(1 0 0 -1 0 48)" gradientUnits="userSpaceOnUse"><stop offset="0" stop-color="#f44f5a"/><stop offset=".443" stop-color="#ee3d4a"/><stop offset="1" stop-color="#e52030"/></linearGradient><path fill="url(#e)" d="M24 19c-4.687 0-8.5 3.813-8.5 8.5S19.313 36 24 36s8.5-3.813 8.5-8.5S28.687 19 24 19zm0 3a5.45 5.45 0 0 1 2.42.569l-7.07 7.855a5.462 5.462 0 0 1-.85-2.924c0-3.033 2.467-5.5 5.5-5.5zm0 11a5.45 5.45 0 0 1-2.42-.569l7.07-7.856c.535.848.85 1.849.85 2.924A5.506 5.506 0 0 1 24 33z"/></svg>