<svg xmlns="http://www.w3.org/2000/svg" viewBox="0 0 48 48"><linearGradient id="a" x1="23" x2="25" y1="5" y2="5" gradientUnits="userSpaceOnUse"><stop offset="0" stop-color="#28afea"/><stop offset="1" stop-color="#0b88da"/></linearGradient><circle cx="24" cy="5" r="1" fill="url(#a)"/><linearGradient id="b" x1="14.786" x2="33.076" y1="31.187" y2="49.477" gradientUnits="userSpaceOnUse"><stop offset="0" stop-color="#33bef0"/><stop offset="1" stop-color="#0a85d9"/></linearGradient><path fill="url(#b)" d="M24 30.571c-8.837 0-16 4.921-16 10.286V42a2 2 0 0 0 2 2h28a2 2 0 0 0 2-2v-1.143c0-5.365-7.163-10.286-16-10.286z"/><path fill="#d6a121" d="M29 31.356 24 37l-5-5.644v-5.391h10z"/><linearGradient id="c" x1="32.917" x2="34.251" y1="20" y2="20" gradientUnits="userSpaceOnUse"><stop offset="0" stop-color="#c48f0c"/><stop offset=".251" stop-color="#d19b16"/><stop offset=".619" stop-color="#dca51f"/><stop offset="1" stop-color="#e0a922"/></linearGradient><path fill="url(#c)" d="M32.916 18h-.527v4h.703c.515 0 .954-.312 1.041-.74l.344-1.703c.165-.814-.58-1.557-1.561-1.557z"/><linearGradient id="d" x1="-71.083" x2="-69.749" y1="20" y2="20" gradientTransform="matrix(-1 0 0 1 -56 0)" gradientUnits="userSpaceOnUse"><stop offset="0" stop-color="#c48f0c"/><stop offset=".251" stop-color="#d19b16"/><stop offset=".619" stop-color="#dca51f"/><stop offset="1" stop-color="#e0a922"/></linearGradient><path fill="url(#d)" d="M15.084 18h.527v4h-.703c-.515 0-.954-.312-1.041-.74l-.344-1.703c-.165-.814.58-1.557 1.561-1.557z"/><radialGradient id="e" cx="-12.518" cy="72.498" r="12.224" gradientTransform="translate(35.037 -45.216) scale(.8816)" gradientUnits="userSpaceOnUse"><stop offset="0" stop-color="#ffcf54"/><stop offset=".261" stop-color="#fdcb4d"/><stop offset=".639" stop-color="#f7c13a"/><stop offset="1" stop-color="#f0b421"/></radialGradient><path fill="url(#e)" d="M24 6.4c-4.441 0-9 .675-9 10.275v6.698C15 26.8 20.4 31 24 31s9-4.2 9-7.627v-6.698C33 7.075 28.441 6.4 24 6.4z"/><linearGradient id="f" x1="21.363" x2="25.354" y1="29.897" y2="43.624" gradientUnits="userSpaceOnUse"><stop offset="0" stop-color="#0d61a9"/><stop offset="1" stop-color="#16528c"/></linearGradient><path fill="url(#f)" d="M31 33.674V39a1 1 0 0 1-1 1H18a1 1 0 0 1-1-1v-7.326a19.071 19.071 0 0 0-3 1.26V44h20V33.934l-3-.26z"/><path fill="#37c6d0" d="M31 36h3v2h-3zM14 36h3v2h-3z"/><radialGradient id="g" cx="-22.221" cy="64.078" r="25.945" gradientTransform="translate(35.037 -45.216) scale(.8816)" gradientUnits="userSpaceOnUse"><stop offset="0" stop-color="#c26715"/><stop offset=".508" stop-color="#b85515"/><stop offset="1" stop-color="#ad3f16"/></radialGradient><path fill="url(#g)" d="M24 10.545c-8 0-10 2.491-10 5.455 0 1 0 3 1 4 0-3 1-8 4-8 1.267 0 2.273 2 5 2 2.303 0 2.875-2 5-2 3 0 4 5 4 8 1-1 1-4 1-4 0-3.43-2-5.455-10-5.455z"/><linearGradient id="h" x1="24" x2="24" y1="4.517" y2="15.361" gradientUnits="userSpaceOnUse"><stop offset="0" stop-color="#0078d3"/><stop offset="1" stop-color="#0858a1"/></linearGradient><path fill="url(#h)" d="M24 5c-9 0-10 6.959-10 8.143V16s1-1 10-1 10 1 10 1v-2.857C34 11.959 33 5 24 5z"/><linearGradient id="i" x1="24" x2="24" y1="4.807" y2="15.035" gradientUnits="userSpaceOnUse"><stop offset="0" stop-color="#28afea"/><stop offset="1" stop-color="#0b88da"/></linearGradient><path fill="url(#i)" d="M24 5c-3.6 0-4 6.959-4 8.143V15h8v-1.857C28 11.959 27.6 5 24 5z"/><linearGradient id="j" x1="24" x2="24" y1="12.841" y2="17.853" gradientUnits="userSpaceOnUse"><stop offset="0" stop-color="#28afea"/><stop offset="1" stop-color="#0b88da"/></linearGradient><path fill="url(#j)" d="M24 13c-6 0-8.75 2.149-10 3 1 1.48 1.922 2 2.618 2 .473 0 1.381-1 7.381-1s6.859 1 7.334 1c.692 0 1.667-.52 2.667-2-.972-.831-4-3-10-3z"/><linearGradient id="k" x1="31.735" x2="47.15" y1="32.004" y2="47.877" gradientUnits="userSpaceOnUse"><stop offset="0" stop-color="#ffd869"/><stop offset="1" stop-color="#fec52b"/></linearGradient><path fill="url(#k)" d="M47 48H32c-.55 0-1-.45-1-1V33c0-.55.45-1 1-1h15c.55 0 1 .45 1 1v14c0 .55-.45 1-1 1z"/><path fill="#fff8e6" d="M37 32h5v3h-5v-3z"/><path fill="#6b5f41" d="M40 45h6v1h-6zM45.5 42.5l-1-1-1 1h.5V44h1v-1.5zM42.5 42.5l-1-1-1 1h.5V44h1v-1.5z"/></svg>