<svg xmlns="http://www.w3.org/2000/svg" viewBox="0 0 48 48" xml:space="preserve"><linearGradient id="a" x1="5.327" x2="38.083" y1="520.657" y2="487.901" gradientTransform="matrix(1 0 0 -1 0 526)" gradientUnits="userSpaceOnUse"><stop offset="0" stop-color="#889097"/><stop offset=".331" stop-color="#848c94"/><stop offset=".669" stop-color="#78828b"/><stop offset="1" stop-color="#64717c"/></linearGradient><path fill="url(#a)" d="M43.4 19.2c-2.4 0-4.7-1.3-6-3.5-1.2-2.1-1.2-4.6-.2-6.7-2.1-1.9-4.6-3.3-7.4-4.2C28.6 6.8 26.4 8 24 8s-4.6-1.2-5.8-3.1c-2.8.8-5.3 2.3-7.4 4.2 1 2 1.1 4.6-.2 6.7-1.3 2.2-3.6 3.5-6 3.5-.4 1.5-.6 3.1-.6 4.7 0 1.3.1 2.5.4 3.8 2.5-.1 4.9 1.2 6.2 3.5 1.4 2.4 1.2 5.2-.2 7.3 2.1 1.9 4.6 3.5 7.3 4.4 1.1-2.3 3.5-4 6.3-4s5.2 1.6 6.3 4c2.8-.9 5.3-2.4 7.3-4.4-1.4-2.1-1.6-5-.2-7.3 1.3-2.3 3.7-3.5 6.2-3.5.2-1.2.4-2.5.4-3.8 0-1.6-.2-3.2-.6-4.8z"/><path d="M30 18.1v1.3c-.6-.7-1.6-1.3-3.4-1.3h-4v6.6l-2.3-6.6h-3.7l-3.8 10.4H17l.6-1.9h1.5l.6 1.9h6.7v-2.9c1.2 0 2.2-.4 3-1l.5-.5v4.4h3.9V18.1H30zm-3.5 4.1v-.6c.3 0 .3.1.3.3-.1.2-.1.3-.3.3z" opacity=".05"/><path d="M26.6 18.6h-3.5v9l-3.2-9H17L13.5 28h3.1l.6-1.9h2.3l.6 1.9H26v-2.9h.4c1.1 0 2.1-.3 2.8-.9.7-.6 1.1-1.4 1.1-2.4-.1-1.5-.7-3.2-3.7-3.2zM18 23.7l.4-1.2.4 1.2H18zm8.2-1H26v-1.6h.2c.9 0 1 .4 1 .8 0 .5-.1.8-1 .8z" opacity=".07"/><path fill="#fff" d="M22.5 27.5h-2.1l-.6-1.9h-3l-.6 1.9h-2.1l3.1-8.4h2.2l3.1 8.4zm-3-3.3-.9-2.8c-.1-.2-.1-.5-.1-.8 0 .2-.1.5-.1.7l-.9 2.8h2z"/><path opacity=".07" d="M30.5 18.6h2.9V28h-2.9z"/><path fill="#fff" d="M25.5 24.6v2.9h-1.9v-8.4h3c2.1 0 3.2.9 3.2 2.7 0 .8-.3 1.5-.9 2s-1.4.8-2.4.8h-1zm0-4v2.6h.7c1 0 1.5-.4 1.5-1.3s-.5-1.3-1.5-1.3h-.7zM32.9 27.5H31v-8.4h1.9v8.4z"/></svg>