<?xml version="1.0" encoding="utf-8"?>
<!-- Generator: Adobe Illustrator 25.2.0, SVG Export Plug-In . SVG Version: 6.00 Build 0)  -->
<svg version="1.1" id="Layer_1" xmlns="http://www.w3.org/2000/svg" xmlns:xlink="http://www.w3.org/1999/xlink" x="0px" y="0px"
	 viewBox="0 0 48 48" style="enable-background:new 0 0 48 48;" xml:space="preserve">
<style type="text/css">
	.st0{fill:#184F85;}
	.st1{fill:#50E6FF;}
	.st2{fill:#0C63AD;}
	.st3{opacity:5.000000e-02;enable-background:new    ;}
	.st4{opacity:7.000000e-02;enable-background:new    ;}
	.st5{fill:#FFFFFF;}
	.st6{fill:url(#SVGID_1_);}
	.st7{fill:url(#SVGID_2_);}
</style>
<g>
	<path class="st0" d="M44.8,8.5H3.2v34c0,1.1,1.6,2,3.5,2h34.7c1.9,0,3.5-0.9,3.5-2V8.5z"/>
	<path class="st1" d="M44.8,8.5H3.2v-3c0-1.1,1.6-2,3.5-2h34.7c1.9,0,3.5,0.9,3.5,2V8.5z"/>
	<circle class="st2" cx="20.1" cy="6" r="0.8"/>
	<path class="st2" d="M27.6,5.3h-5c-0.4,0-0.8,0.3-0.8,0.8s0.3,0.8,0.8,0.8h5c0.4,0,0.8-0.3,0.8-0.8S28,5.3,27.6,5.3z"/>
	<path class="st3" d="M13,33.4c-0.5,0-0.8-0.1-1.1-0.5l-4.6-4.6c-0.7-0.7-0.7-1.7,0-2.3l4.6-4.6c0.3-0.3,0.7-0.5,1.1-0.5
		s0.8,0.1,1.1,0.5l1,1c0.3,0.3,0.5,0.7,0.5,1.1c0,0.5-0.1,0.8-0.5,1.1l-2.5,2.5l2.5,2.5c0.3,0.3,0.5,0.7,0.5,1.1
		c0,0.5-0.1,0.8-0.5,1.1l-1,1C13.9,33.2,13.4,33.4,13,33.4z"/>
	<path class="st4" d="M13,32.8c-0.2,0-0.6-0.1-0.8-0.3l-4.6-4.6c-0.5-0.5-0.5-1,0-1.5l4.6-4.6c0.2-0.2,0.5-0.3,0.8-0.3
		c0.2,0,0.6,0.1,0.8,0.3l1,1c0.2,0.2,0.3,0.5,0.3,0.8s-0.1,0.6-0.3,0.8l-2.9,2.9l2.8,2.7c0.2,0.2,0.3,0.5,0.3,0.8
		c0,0.2-0.1,0.6-0.3,0.8l-1,1C13.5,32.7,13.3,32.8,13,32.8z"/>
	<path class="st5" d="M14.3,23.1l-1-1c-0.2-0.2-0.5-0.2-0.7,0L8,26.7c-0.2,0.2-0.2,0.5,0,0.7l4.6,4.6c0.2,0.2,0.5,0.2,0.7,0l1-1
		c0.2-0.2,0.2-0.5,0-0.7l-3.3-3.3l3.3-3.3C14.4,23.7,14.4,23.4,14.3,23.1z"/>
	<path class="st3" d="M35.5,33.4c-0.5,0-0.8-0.1-1.1-0.5l-1-1c-0.7-0.7-0.7-1.7,0-2.3l2.5-2.5l-2.5-2.5c-0.7-0.7-0.7-1.7,0-2.3l1-1
		c0.3-0.3,0.7-0.5,1.1-0.5c0.5,0,0.8,0.1,1.1,0.5l4.6,4.6c0.3,0.3,0.5,0.7,0.5,1.1c0,0.5-0.1,0.8-0.5,1.1l-4.6,4.6
		C36.2,33.2,35.9,33.4,35.5,33.4z"/>
	<path class="st4" d="M36,32.8c-0.2,0-0.6-0.1-0.8-0.3l-1-1c-0.5-0.5-0.5-1,0-1.5l2.9-2.9l-2.9-2.9c-0.5-0.5-0.5-1,0-1.5l1-1
		c0.2-0.2,0.5-0.3,0.8-0.3c0.2,0,0.6,0.1,0.8,0.3l4.6,4.6c0.2,0.2,0.3,0.5,0.3,0.8c0,0.3-0.1,0.6-0.3,0.8l-4.6,4.6
		C36.5,32.7,36.2,32.8,36,32.8z"/>
	<path class="st5" d="M40.9,26.9l-4.6-4.6c-0.2-0.2-0.5-0.2-0.7,0l-1,1c-0.2,0.2-0.2,0.5,0,0.7l3.3,3.3l-3.3,3.3
		c-0.2,0.2-0.2,0.5,0,0.7l1,1c0.2,0.2,0.5,0.2,0.7,0l4.6-4.6C41,27.3,41,27,40.9,26.9z"/>
	
		<linearGradient id="SVGID_1_" gradientUnits="userSpaceOnUse" x1="18.8662" y1="27.7651" x2="29.7277" y2="16.9036" gradientTransform="matrix(1 0 0 -1 0 49)">
		<stop  offset="0" style="stop-color:#F44F5A"/>
		<stop  offset="0.443" style="stop-color:#EE3D4A"/>
		<stop  offset="1" style="stop-color:#E52030"/>
	</linearGradient>
	<path class="st6" d="M24.3,19c-4.2,0-7.6,3.4-7.6,7.6s3.4,7.6,7.6,7.6s7.6-3.4,7.6-7.6S28.5,19,24.3,19z M24.3,32
		c-2.9,0-5.3-2.4-5.3-5.3s2.4-5.3,5.3-5.3s5.3,2.4,5.3,5.3S27.2,32,24.3,32z"/>
	
		<linearGradient id="SVGID_2_" gradientUnits="userSpaceOnUse" x1="17.8187" y1="29.3126" x2="30.8527" y2="16.2787" gradientTransform="matrix(1 0 0 -1 -0.146 49.354)">
		<stop  offset="0" style="stop-color:#F44F5A"/>
		<stop  offset="0.443" style="stop-color:#EE3D4A"/>
		<stop  offset="1" style="stop-color:#E52030"/>
	</linearGradient>
	<path class="st7" d="M20.2,32.3l-1.6-1.6l9.7-9.7l1.6,1.6L20.2,32.3z"/>
</g>
</svg>
