<?xml version="1.0" encoding="utf-8"?>
<!-- Generator: Adobe Illustrator 25.2.0, SVG Export Plug-In . SVG Version: 6.00 Build 0)  -->
<svg version="1.1" id="Layer_1" xmlns="http://www.w3.org/2000/svg" xmlns:xlink="http://www.w3.org/1999/xlink" x="0px" y="0px"
	 viewBox="0 0 48 48" style="enable-background:new 0 0 48 48;" xml:space="preserve">
<style type="text/css">
	.st0{fill:url(#SVGID_1_);}
	.st1{fill:url(#SVGID_2_);}
	.st2{fill:url(#SVGID_3_);}
	.st3{fill:url(#SVGID_4_);}
	.st4{fill:url(#SVGID_5_);}
	.st5{fill:url(#SVGID_6_);}
</style>
<linearGradient id="SVGID_1_" gradientUnits="userSpaceOnUse" x1="12.727" y1="15.273" x2="4.186" y2="23.814" gradientTransform="matrix(1 0 0 -1 0 49)">
	<stop  offset="0.365" style="stop-color:#199AE0"/>
	<stop  offset="0.699" style="stop-color:#1898DE"/>
	<stop  offset="0.819" style="stop-color:#1691D8"/>
	<stop  offset="0.905" style="stop-color:#1186CC"/>
	<stop  offset="0.974" style="stop-color:#0A75BC"/>
	<stop  offset="1" style="stop-color:#076CB3"/>
</linearGradient>
<path class="st0" d="M0.3,24.7l9.5,9.5c0.4,0.4,1,0.4,1.4,0c0,0,0,0,0,0l2-2c0.4-0.4,0.4-1,0-1.4c0,0,0,0,0,0l-9.5-9.5
	c-0.4-0.4-1-0.4-1.4,0c0,0,0,0,0,0l-2,2C-0.1,23.7-0.1,24.3,0.3,24.7z"/>
<linearGradient id="SVGID_2_" gradientUnits="userSpaceOnUse" x1="1.359" y1="23.359" x2="12.357" y2="34.357" gradientTransform="matrix(1 0 0 -1 0 49)">
	<stop  offset="0" style="stop-color:#32BDEF"/>
	<stop  offset="1" style="stop-color:#1EA2E4"/>
</linearGradient>
<path class="st1" d="M3.7,26.7l9.5-9.5c0.4-0.4,0.4-1,0-1.4c0,0,0,0,0,0l-2-2c-0.4-0.4-1-0.4-1.4,0c0,0,0,0,0,0l-9.5,9.5
	c-0.4,0.4-0.4,1,0,1.4c0,0,0,0,0,0l2,2C2.7,27.1,3.3,27.1,3.7,26.7C3.7,26.7,3.7,26.7,3.7,26.7z"/>
<linearGradient id="SVGID_3_" gradientUnits="userSpaceOnUse" x1="-460.2735" y1="15.2725" x2="-468.8145" y2="23.8135" gradientTransform="matrix(-1 0 0 -1 -425 49)">
	<stop  offset="0.365" style="stop-color:#199AE0"/>
	<stop  offset="0.699" style="stop-color:#1898DE"/>
	<stop  offset="0.819" style="stop-color:#1691D8"/>
	<stop  offset="0.905" style="stop-color:#1186CC"/>
	<stop  offset="0.974" style="stop-color:#0A75BC"/>
	<stop  offset="1" style="stop-color:#076CB3"/>
</linearGradient>
<path class="st2" d="M47.7,24.7l-9.5,9.5c-0.4,0.4-1,0.4-1.4,0c0,0,0,0,0,0l-2-2c-0.4-0.4-0.4-1,0-1.4c0,0,0,0,0,0l9.5-9.5
	c0.4-0.4,1-0.4,1.4,0c0,0,0,0,0,0l2,2C48.1,23.7,48.1,24.3,47.7,24.7C47.7,24.7,47.7,24.7,47.7,24.7z"/>
<linearGradient id="SVGID_4_" gradientUnits="userSpaceOnUse" x1="-471.6405" y1="23.3585" x2="-460.6425" y2="34.3565" gradientTransform="matrix(-1 0 0 -1 -425 49)">
	<stop  offset="0" style="stop-color:#32BDEF"/>
	<stop  offset="1" style="stop-color:#1EA2E4"/>
</linearGradient>
<path class="st3" d="M44.3,26.7l-9.5-9.5c-0.4-0.4-0.4-1,0-1.4c0,0,0,0,0,0l2-2c0.4-0.4,1-0.4,1.4,0c0,0,0,0,0,0l9.5,9.5
	c0.4,0.4,0.4,1,0,1.4c0,0,0,0,0,0l-2,2C45.3,27.1,44.7,27.1,44.3,26.7C44.3,26.7,44.3,26.7,44.3,26.7z"/>
<linearGradient id="SVGID_5_" gradientUnits="userSpaceOnUse" x1="17.7815" y1="31.5639" x2="30.3356" y2="19.0097" gradientTransform="matrix(1 0 0 -1 0 49)">
	<stop  offset="0" style="stop-color:#F44F5A"/>
	<stop  offset="0.443" style="stop-color:#EE3D4A"/>
	<stop  offset="1" style="stop-color:#E52030"/>
</linearGradient>
<path class="st4" d="M24,14.9c-4.9,0-8.8,3.9-8.8,8.8s3.9,8.8,8.8,8.8s8.8-3.9,8.8-8.8S28.9,14.9,24,14.9z M24,29.8
	c-3.4,0-6.2-2.8-6.2-6.2s2.8-6.2,6.2-6.2s6.2,2.8,6.2,6.2S27.4,29.8,24,29.8z"/>
<linearGradient id="SVGID_6_" gradientUnits="userSpaceOnUse" x1="16.548" y1="33.2973" x2="31.613" y2="18.2323" gradientTransform="matrix(1 0 0 -1 -0.146 49.354)">
	<stop  offset="0" style="stop-color:#F44F5A"/>
	<stop  offset="0.443" style="stop-color:#EE3D4A"/>
	<stop  offset="1" style="stop-color:#E52030"/>
</linearGradient>
<path class="st5" d="M19.3,30.2l-1.9-1.9l11.2-11.2l1.9,1.9L19.3,30.2z"/>
</svg>
