<?xml version="1.0" encoding="utf-8"?>
<!-- Generator: Adobe Illustrator 25.2.0, SVG Export Plug-In . SVG Version: 6.00 Build 0)  -->
<svg version="1.1" id="Layer_1" xmlns="http://www.w3.org/2000/svg" xmlns:xlink="http://www.w3.org/1999/xlink" x="0px" y="0px"
	 viewBox="0 0 48 48" style="enable-background:new 0 0 48 48;" xml:space="preserve">
<style type="text/css">
	.st0{fill:#2C3394;}
	.st1{fill:#4951B5;}
	.st2{display:none;fill:#2C3394;}
	.st3{display:none;fill:#4951B5;}
	.st4{opacity:0.63;fill:none;stroke:#2B38AF;stroke-miterlimit:10;}
</style>
<path class="st0" d="M42,14.8H21.1c-0.5,0-0.9-0.4-0.9-0.9v-1.8c0-0.5,0.4-0.9,0.9-0.9H42c0.5,0,0.9,0.4,0.9,0.9v1.8
	C42.9,14.4,42.5,14.8,42,14.8z"/>
<path class="st1" d="M9.1,16.4l-3.2-3.2c-0.3-0.3-0.3-0.8,0-1.1c0,0,0,0,0,0L7,11c0.3-0.3,0.8-0.3,1.1,0c0,0,0,0,0,0l1.5,1.5
	l4.7-4.7c0.3-0.3,0.8-0.3,1.1,0c0,0,0,0,0,0l1.1,1.1c0.3,0.3,0.3,0.8,0,1.1c0,0,0,0,0,0l-6.4,6.4C9.9,16.7,9.4,16.7,9.1,16.4
	C9.1,16.4,9.1,16.4,9.1,16.4z"/>
<path class="st0" d="M42,25.7H21.1c-0.5,0-0.9-0.4-0.9-0.9V23c0-0.5,0.4-0.9,0.9-0.9H42c0.5,0,0.9,0.4,0.9,0.9v1.8
	C42.9,25.3,42.5,25.7,42,25.7z"/>
<path class="st1" d="M9.1,27.3l-3.2-3.2c-0.3-0.3-0.3-0.8,0-1.1c0,0,0,0,0,0L7,21.9c0.3-0.3,0.8-0.3,1.1,0c0,0,0,0,0,0l1.5,1.5
	l4.7-4.7c0.3-0.3,0.8-0.3,1.1,0c0,0,0,0,0,0l1.1,1.1c0.3,0.3,0.3,0.8,0,1.1c0,0,0,0,0,0l-6.4,6.4C9.9,27.6,9.4,27.6,9.1,27.3
	C9.1,27.3,9.1,27.3,9.1,27.3z"/>
<path class="st0" d="M42,37.3H20c-0.5,0-1-0.4-1-1v-1.9c0-0.5,0.4-1,1-1H42c0.5,0,1,0.4,1,1v1.9C42.9,36.9,42.5,37.3,42,37.3z"/>
<path class="st1" d="M9.1,38.2L5.9,35c-0.3-0.3-0.3-0.8,0-1.1c0,0,0,0,0,0L7,32.8c0.3-0.3,0.8-0.3,1.1,0c0,0,0,0,0,0l1.5,1.5
	l4.7-4.7c0.3-0.3,0.8-0.3,1.1,0c0,0,0,0,0,0l1.1,1.1c0.3,0.3,0.3,0.8,0,1.1c0,0,0,0,0,0l-6.4,6.4C9.9,38.5,9.4,38.5,9.1,38.2
	C9.1,38.2,9.1,38.2,9.1,38.2z"/>
<image style="display:none;overflow:visible;" width="381" height="430" xlink:href="CB1E61C2.jpg"  transform="matrix(0.2565 0 0 0.2565 -98.4623 -17.1491)">
</image>
<rect x="1" y="-37.7" class="st2" width="29.3" height="15.7"/>
<rect x="36.2" y="-37.7" class="st3" width="30.6" height="15.7"/>
<path class="st4" d="M3.8,45.8h41c0.4,0,0.8-0.4,0.8-0.8v-41c0-0.4-0.4-0.8-0.8-0.8h-41C3.4,3.2,3,3.6,3,4.1v41
	C3,45.5,3.4,45.8,3.8,45.8z"/>
</svg>
