<?xml version="1.0" encoding="utf-8"?>
<!-- Generator: Adobe Illustrator 25.2.0, SVG Export Plug-In . SVG Version: 6.00 Build 0)  -->
<svg version="1.1" id="Layer_1" xmlns="http://www.w3.org/2000/svg" xmlns:xlink="http://www.w3.org/1999/xlink" x="0px" y="0px"
	 viewBox="0 0 48 48" style="enable-background:new 0 0 48 48;" xml:space="preserve">
<style type="text/css">
	.st0{fill:#4951B5;}
	.st1{fill:#2C3394;}
	.st2{fill:#F6ECA5;}
</style>
<path class="st0" d="M28.5,6h-9C18.7,6,18,6.7,18,7.5V9h12V7.5C30,6.7,29.3,6,28.5,6z"/>
<path class="st0" d="M42,40.1H6c-1.1,0-2-0.9-2-1.9V12.9C4,10.7,5.8,9,8,9h32c2.2,0,4,1.7,4,3.9v25.3C44,39.2,43.1,40.1,42,40.1z"/>
<path class="st1" d="M42.3,25.3L24,28L5.7,25.3c-1-0.1-1.7-1-1.7-2V13c0-2.2,1.8-4,4-4h32c2.2,0,4,1.8,4,4v10.3
	C44,24.3,43.3,25.1,42.3,25.3z"/>
<path class="st2" d="M25.5,21h-3c-0.3,0-0.5,0.2-0.5,0.5v3c0,0.3,0.2,0.5,0.5,0.5h3c0.3,0,0.5-0.2,0.5-0.5v-3
	C26,21.2,25.8,21,25.5,21z"/>
<rect x="-8.9" y="-26.3" class="st1" width="29.3" height="15.7"/>
<rect x="26.3" y="-26.3" class="st0" width="30.6" height="15.7"/>
</svg>
