<svg width="2125" height="2164" viewBox="0 0 2125 2164" fill="none" xmlns="http://www.w3.org/2000/svg">
<path d="M1049.85 0.0176994C962.224 0.427769 878.546 7.95439 804.918 21.0764C588.02 59.6704 548.64 140.451 548.64 289.424V486.172H1061.2V551.755H548.64H356.282C207.318 551.755 76.8817 641.934 36.0828 813.484C-10.9782 1010.12 -13.0656 1132.83 36.0828 1338.15C72.5172 1490.98 159.527 1599.88 308.491 1599.88H484.72V1364.02C484.72 1193.63 631.096 1043.32 804.918 1043.32H1316.88C1459.39 1043.32 1573.16 925.143 1573.16 780.994V289.424C1573.16 149.521 1455.97 44.4257 1316.88 21.0764C1228.83 6.31412 1137.47 -0.392371 1049.85 0.0176994ZM772.66 158.259C825.603 158.259 868.839 202.516 868.839 256.934C868.839 311.158 825.603 355.007 772.66 355.007C719.526 355.007 676.48 311.158 676.48 256.934C676.48 202.516 719.526 158.259 772.66 158.259Z" fill="url(#paint0_linear_311:24)"/>
<path d="M1637.08 551.758V780.997C1637.08 958.723 1487.47 1108.31 1316.88 1108.31H804.919C664.685 1108.31 548.641 1229.19 548.641 1370.64V1862.21C548.641 2002.11 669.429 2084.4 804.919 2124.54C967.166 2172.59 1122.75 2181.27 1316.88 2124.54C1445.92 2086.91 1573.16 2011.18 1573.16 1862.21V1665.46H1061.2V1599.88H1573.16H1829.44C1978.4 1599.88 2033.91 1495.23 2085.71 1338.15C2139.23 1176.44 2136.95 1020.93 2085.71 813.488C2048.9 664.129 1978.59 551.758 1829.44 551.758H1637.08ZM1349.14 1796.63C1402.27 1796.63 1445.32 1840.48 1445.32 1894.7C1445.32 1949.12 1402.27 1993.37 1349.14 1993.37C1296.19 1993.37 1252.96 1949.12 1252.96 1894.7C1252.96 1840.48 1296.19 1796.63 1349.14 1796.63Z" fill="url(#paint1_linear_311:24)"/>
<defs>
<linearGradient id="paint0_linear_311:24" x1="1.67291e-06" y1="1.46365e-06" x2="1189.01" y2="1005.98" gradientUnits="userSpaceOnUse">
<stop stop-color="#5961FF"/>
<stop offset="1" stop-color="#5961FF"/>
</linearGradient>
<linearGradient id="paint1_linear_311:24" x1="1336.82" y1="1878.16" x2="908.769" y2="1282.61" gradientUnits="userSpaceOnUse">
<stop stop-color="#5961FF"/>
<stop offset="1" stop-color="#5961FF"/>
</linearGradient>
</defs>
</svg>
