<svg xmlns="http://www.w3.org/2000/svg" viewBox="0 0 48 48"><path fill="#64717c" d="m7.91 32.133 31.177-18 1 1.732-31.176 18z"/><path fill="#64717c" d="m7.911 15.868 1-1.732 31.176 18-1 1.731z"/><path fill="#64717c" d="M23 6h2v36h-2z"/><linearGradient id="a" x1="22.011" x2="26.212" y1="785.791" y2="789.993" gradientTransform="translate(0 -781.78)" gradientUnits="userSpaceOnUse"><stop offset="0" stop-color="#33bef0"/><stop offset="1" stop-color="#0a85d9"/></linearGradient><circle cx="24" cy="6" r="3" fill="url(#a)"/><linearGradient id="b" x1="6.011" x2="10.213" y1="794.791" y2="798.992" gradientTransform="translate(0 -781.78)" gradientUnits="userSpaceOnUse"><stop offset="0" stop-color="#33bef0"/><stop offset="1" stop-color="#0a85d9"/></linearGradient><circle cx="8" cy="15" r="3" fill="url(#b)"/><linearGradient id="c" x1="6.011" x2="10.213" y1="812.791" y2="816.992" gradientTransform="translate(0 -781.78)" gradientUnits="userSpaceOnUse"><stop offset="0" stop-color="#33bef0"/><stop offset="1" stop-color="#0a85d9"/></linearGradient><circle cx="8" cy="33" r="3" fill="url(#c)"/><linearGradient id="d" x1="38.011" x2="42.212" y1="794.791" y2="798.992" gradientTransform="translate(0 -781.78)" gradientUnits="userSpaceOnUse"><stop offset="0" stop-color="#33bef0"/><stop offset="1" stop-color="#0a85d9"/></linearGradient><circle cx="40" cy="15" r="3" fill="url(#d)"/><linearGradient id="e" x1="38.011" x2="42.212" y1="812.791" y2="816.992" gradientTransform="translate(0 -781.78)" gradientUnits="userSpaceOnUse"><stop offset="0" stop-color="#33bef0"/><stop offset="1" stop-color="#0a85d9"/></linearGradient><circle cx="40" cy="33" r="3" fill="url(#e)"/><linearGradient id="f" x1="22.011" x2="26.212" y1="821.791" y2="825.992" gradientTransform="translate(0 -781.78)" gradientUnits="userSpaceOnUse"><stop offset="0" stop-color="#33bef0"/><stop offset="1" stop-color="#0a85d9"/></linearGradient><circle cx="24" cy="42" r="3" fill="url(#f)"/><linearGradient id="g" x1="22.39" x2="25.51" y1="27.841" y2="20.184" gradientTransform="matrix(1 0 0 -1 0 47.89)" gradientUnits="userSpaceOnUse"><stop offset="0" stop-color="#2aa4f4"/><stop offset="1" stop-color="#007ad9"/></linearGradient><circle cx="24" cy="24" r="5" fill="url(#g)"/></svg>